<svg width="153" height="56" viewBox="0 0 153 56" fill="none" xmlns="http://www.w3.org/2000/svg">
<rect width="153" height="56" rx="12" fill="#0F0F0F"/>
<path d="M42.0455 28.9539C42.012 25.1639 45.0969 23.32 45.238 23.2342C43.4909 20.6436 40.7828 20.2896 39.8312 20.2614C37.5568 20.018 35.3506 21.6455 34.192 21.6455C33.0103 21.6455 31.2261 20.2849 29.3032 20.3249C26.8288 20.3637 24.5139 21.8207 23.2443 24.0832C20.6241 28.6964 22.5783 35.4757 25.0886 39.2046C26.3443 41.032 27.8116 43.0699 29.7322 42.9982C31.6112 42.9205 32.313 41.7811 34.5805 41.7811C36.8272 41.7811 37.4863 42.9982 39.445 42.9523C41.4616 42.9205 42.7312 41.1178 43.943 39.2751C45.3941 37.1832 45.9769 35.1206 46 35.0147C45.9537 34.9983 42.0848 33.4954 42.0455 28.9539ZM38.3454 17.8084C39.356 16.5231 40.0474 14.7745 39.8555 13C38.3928 13.0659 36.5635 14.0289 35.5102 15.286C34.5782 16.3938 33.7457 18.2094 33.9607 19.9169C35.6038 20.0415 37.2908 19.0737 38.3454 17.8084Z" fill="white"/>
<path d="M61.125 21.5H58.8807V14.2273H61.2244C61.9299 14.2273 62.5336 14.3729 63.0355 14.6641C63.5374 14.9529 63.9221 15.3684 64.1896 15.9105C64.4571 16.4503 64.5909 17.0966 64.5909 17.8494C64.5909 18.607 64.456 19.2592 64.1861 19.8061C63.9162 20.3506 63.5232 20.7696 63.0071 21.0632C62.491 21.3544 61.8636 21.5 61.125 21.5ZM59.7614 20.7188H61.0682C61.6695 20.7188 62.1679 20.6027 62.5632 20.3707C62.9586 20.1387 63.2533 19.8085 63.4474 19.38C63.6416 18.9515 63.7386 18.4413 63.7386 17.8494C63.7386 17.2623 63.6428 16.7569 63.451 16.3331C63.2592 15.907 62.9728 15.5803 62.5916 15.353C62.2105 15.1233 61.7358 15.0085 61.1676 15.0085H59.7614V20.7188ZM68.1705 21.6136C67.678 21.6136 67.246 21.4964 66.8743 21.2621C66.505 21.0277 66.2161 20.6998 66.0078 20.2784C65.8018 19.857 65.6989 19.3646 65.6989 18.8011C65.6989 18.233 65.8018 17.737 66.0078 17.3132C66.2161 16.8894 66.505 16.5604 66.8743 16.326C67.246 16.0916 67.678 15.9744 68.1705 15.9744C68.6629 15.9744 69.0938 16.0916 69.4631 16.326C69.8348 16.5604 70.1236 16.8894 70.3295 17.3132C70.5379 17.737 70.642 18.233 70.642 18.8011C70.642 19.3646 70.5379 19.857 70.3295 20.2784C70.1236 20.6998 69.8348 21.0277 69.4631 21.2621C69.0938 21.4964 68.6629 21.6136 68.1705 21.6136ZM68.1705 20.8608C68.5445 20.8608 68.8523 20.7649 69.0938 20.5732C69.3352 20.3814 69.514 20.1293 69.63 19.8168C69.746 19.5043 69.804 19.1657 69.804 18.8011C69.804 18.4366 69.746 18.0968 69.63 17.782C69.514 17.4671 69.3352 17.2126 69.0938 17.0185C68.8523 16.8243 68.5445 16.7273 68.1705 16.7273C67.7964 16.7273 67.4886 16.8243 67.2472 17.0185C67.0057 17.2126 66.8269 17.4671 66.7109 17.782C66.5949 18.0968 66.5369 18.4366 66.5369 18.8011C66.5369 19.1657 66.5949 19.5043 66.7109 19.8168C66.8269 20.1293 67.0057 20.3814 67.2472 20.5732C67.4886 20.7649 67.7964 20.8608 68.1705 20.8608ZM72.9716 21.5L71.3097 16.0455H72.1903L73.3693 20.2216H73.4261L74.5909 16.0455H75.4858L76.6364 20.2074H76.6932L77.8722 16.0455H78.7528L77.0909 21.5H76.267L75.0739 17.3097H74.9886L73.7955 21.5H72.9716ZM80.6989 18.2188V21.5H79.8608V16.0455H80.6705V16.8977H80.7415C80.8693 16.6207 81.0634 16.3982 81.3239 16.2301C81.5843 16.0597 81.9205 15.9744 82.3324 15.9744C82.7017 15.9744 83.0249 16.0502 83.3018 16.2017C83.5788 16.3509 83.7943 16.5781 83.9482 16.8835C84.102 17.1866 84.179 17.5701 84.179 18.0341V21.5H83.3409V18.0909C83.3409 17.6624 83.2296 17.3286 83.0071 17.0895C82.7846 16.848 82.4792 16.7273 82.0909 16.7273C81.8234 16.7273 81.5843 16.7853 81.3736 16.9013C81.1652 17.0173 81.0007 17.1866 80.88 17.4091C80.7592 17.6316 80.6989 17.9015 80.6989 18.2188ZM86.5485 14.2273V21.5H85.7104V14.2273H86.5485ZM90.2994 21.6136C89.8069 21.6136 89.3749 21.4964 89.0032 21.2621C88.6339 21.0277 88.3451 20.6998 88.1367 20.2784C87.9308 19.857 87.8278 19.3646 87.8278 18.8011C87.8278 18.233 87.9308 17.737 88.1367 17.3132C88.3451 16.8894 88.6339 16.5604 89.0032 16.326C89.3749 16.0916 89.8069 15.9744 90.2994 15.9744C90.7918 15.9744 91.2227 16.0916 91.592 16.326C91.9637 16.5604 92.2525 16.8894 92.4585 17.3132C92.6668 17.737 92.771 18.233 92.771 18.8011C92.771 19.3646 92.6668 19.857 92.4585 20.2784C92.2525 20.6998 91.9637 21.0277 91.592 21.2621C91.2227 21.4964 90.7918 21.6136 90.2994 21.6136ZM90.2994 20.8608C90.6734 20.8608 90.9812 20.7649 91.2227 20.5732C91.4641 20.3814 91.6429 20.1293 91.7589 19.8168C91.8749 19.5043 91.9329 19.1657 91.9329 18.8011C91.9329 18.4366 91.8749 18.0968 91.7589 17.782C91.6429 17.4671 91.4641 17.2126 91.2227 17.0185C90.9812 16.8243 90.6734 16.7273 90.2994 16.7273C89.9253 16.7273 89.6175 16.8243 89.3761 17.0185C89.1346 17.2126 88.9558 17.4671 88.8398 17.782C88.7238 18.0968 88.6658 18.4366 88.6658 18.8011C88.6658 19.1657 88.7238 19.5043 88.8398 19.8168C88.9558 20.1293 89.1346 20.3814 89.3761 20.5732C89.6175 20.7649 89.9253 20.8608 90.2994 20.8608ZM95.6554 21.6278C95.3097 21.6278 94.996 21.5627 94.7143 21.4325C94.4326 21.3 94.2089 21.1094 94.0431 20.8608C93.8774 20.6098 93.7946 20.3068 93.7946 19.9517C93.7946 19.6392 93.8561 19.3859 93.9792 19.1918C94.1023 18.9953 94.2669 18.8414 94.4728 18.7301C94.6788 18.6188 94.9061 18.536 95.1547 18.4815C95.4056 18.4247 95.6577 18.3797 95.911 18.3466C96.2425 18.304 96.5112 18.272 96.7172 18.2507C96.9255 18.227 97.077 18.188 97.1717 18.1335C97.2688 18.0791 97.3173 17.9844 97.3173 17.8494V17.821C97.3173 17.4706 97.2214 17.1984 97.0297 17.0043C96.8403 16.8101 96.5526 16.7131 96.1667 16.7131C95.7666 16.7131 95.4529 16.8007 95.2257 16.9759C94.9984 17.151 94.8386 17.3381 94.7463 17.5369L93.9508 17.2528C94.0929 16.9214 94.2823 16.6634 94.519 16.4787C94.7581 16.2917 95.0185 16.1615 95.3002 16.0881C95.5843 16.0123 95.8637 15.9744 96.1383 15.9744C96.3135 15.9744 96.5147 15.9957 96.742 16.0384C96.9717 16.0786 97.193 16.1626 97.4061 16.2905C97.6215 16.4183 97.8002 16.6113 97.9423 16.8693C98.0843 17.1274 98.1554 17.473 98.1554 17.9062V21.5H97.3173V20.7614H97.2747C97.2179 20.8797 97.1232 21.0064 96.9906 21.1413C96.858 21.2763 96.6816 21.3911 96.4615 21.4858C96.2413 21.5805 95.9726 21.6278 95.6554 21.6278ZM95.7832 20.875C96.1146 20.875 96.394 20.8099 96.6213 20.6797C96.8509 20.5495 97.0237 20.3814 97.1397 20.1754C97.2581 19.9695 97.3173 19.7528 97.3173 19.5256V18.7585C97.2818 18.8011 97.2037 18.8402 97.0829 18.8757C96.9645 18.9089 96.8272 18.9384 96.671 18.9645C96.5171 18.9882 96.3668 19.0095 96.22 19.0284C96.0756 19.045 95.9584 19.0592 95.8684 19.071C95.6506 19.0994 95.447 19.1456 95.2576 19.2095C95.0706 19.2711 94.9191 19.3646 94.8031 19.4901C94.6895 19.6132 94.6326 19.7812 94.6326 19.9943C94.6326 20.2855 94.7404 20.5057 94.9558 20.6548C95.1736 20.8016 95.4494 20.875 95.7832 20.875ZM101.745 21.6136C101.29 21.6136 100.889 21.4988 100.541 21.2692C100.193 21.0372 99.9206 20.7105 99.7241 20.2891C99.5276 19.8653 99.4293 19.3646 99.4293 18.7869C99.4293 18.214 99.5276 17.7169 99.7241 17.2955C99.9206 16.8741 100.194 16.5485 100.544 16.3189C100.895 16.0893 101.3 15.9744 101.759 15.9744C102.114 15.9744 102.395 16.0336 102.6 16.152C102.809 16.268 102.967 16.4006 103.076 16.5497C103.188 16.6965 103.274 16.8172 103.336 16.9119H103.407V14.2273H104.245V21.5H103.435V20.6619H103.336C103.274 20.7614 103.186 20.8868 103.073 21.0384C102.959 21.1875 102.797 21.3213 102.586 21.4396C102.376 21.5556 102.095 21.6136 101.745 21.6136ZM101.858 20.8608C102.194 20.8608 102.479 20.7732 102.711 20.598C102.943 20.4205 103.119 20.1754 103.24 19.8629C103.36 19.5481 103.421 19.1847 103.421 18.7727C103.421 18.3655 103.362 18.0092 103.243 17.7038C103.125 17.3961 102.95 17.157 102.718 16.9865C102.486 16.8137 102.199 16.7273 101.858 16.7273C101.503 16.7273 101.207 16.8184 100.971 17.0007C100.736 17.1806 100.56 17.4257 100.441 17.7358C100.325 18.0436 100.267 18.3892 100.267 18.7727C100.267 19.161 100.327 19.5137 100.445 19.831C100.566 20.1458 100.743 20.3968 100.978 20.5838C101.214 20.7685 101.508 20.8608 101.858 20.8608ZM110.924 21.6136C110.432 21.6136 110 21.4964 109.628 21.2621C109.259 21.0277 108.97 20.6998 108.762 20.2784C108.556 19.857 108.453 19.3646 108.453 18.8011C108.453 18.233 108.556 17.737 108.762 17.3132C108.97 16.8894 109.259 16.5604 109.628 16.326C110 16.0916 110.432 15.9744 110.924 15.9744C111.417 15.9744 111.848 16.0916 112.217 16.326C112.589 16.5604 112.877 16.8894 113.083 17.3132C113.292 17.737 113.396 18.233 113.396 18.8011C113.396 19.3646 113.292 19.857 113.083 20.2784C112.877 20.6998 112.589 21.0277 112.217 21.2621C111.848 21.4964 111.417 21.6136 110.924 21.6136ZM110.924 20.8608C111.298 20.8608 111.606 20.7649 111.848 20.5732C112.089 20.3814 112.268 20.1293 112.384 19.8168C112.5 19.5043 112.558 19.1657 112.558 18.8011C112.558 18.4366 112.5 18.0968 112.384 17.782C112.268 17.4671 112.089 17.2126 111.848 17.0185C111.606 16.8243 111.298 16.7273 110.924 16.7273C110.55 16.7273 110.243 16.8243 110.001 17.0185C109.76 17.2126 109.581 17.4671 109.465 17.782C109.349 18.0968 109.291 18.4366 109.291 18.8011C109.291 19.1657 109.349 19.5043 109.465 19.8168C109.581 20.1293 109.76 20.3814 110.001 20.5732C110.243 20.7649 110.55 20.8608 110.924 20.8608ZM115.513 18.2188V21.5H114.675V16.0455H115.485V16.8977H115.556C115.684 16.6207 115.878 16.3982 116.138 16.2301C116.399 16.0597 116.735 15.9744 117.147 15.9744C117.516 15.9744 117.839 16.0502 118.116 16.2017C118.393 16.3509 118.609 16.5781 118.763 16.8835C118.916 17.1866 118.993 17.5701 118.993 18.0341V21.5H118.155V18.0909C118.155 17.6624 118.044 17.3286 117.822 17.0895C117.599 16.848 117.294 16.7273 116.905 16.7273C116.638 16.7273 116.399 16.7853 116.188 16.9013C115.98 17.0173 115.815 17.1866 115.694 17.4091C115.574 17.6316 115.513 17.9015 115.513 18.2188Z" fill="white"/>
<path d="M60.2614 39.5H58.3977L62.5852 27.8636H64.6136L68.8011 39.5H66.9375L63.6477 29.9773H63.5568L60.2614 39.5ZM60.5739 34.9432H66.6193V36.4205H60.5739V34.9432ZM70.3452 42.7727V30.7727H72.0043V32.1875H72.1463C72.2448 32.0057 72.3868 31.7955 72.5724 31.5568C72.758 31.3182 73.0156 31.1098 73.3452 30.9318C73.6747 30.75 74.1103 30.6591 74.652 30.6591C75.3565 30.6591 75.9853 30.8371 76.5384 31.1932C77.0914 31.5492 77.5251 32.0625 77.8395 32.733C78.1577 33.4034 78.3168 34.2102 78.3168 35.1534C78.3168 36.0966 78.1596 36.9053 77.8452 37.5795C77.5308 38.25 77.099 38.767 76.5497 39.1307C76.0005 39.4905 75.3736 39.6705 74.669 39.6705C74.1387 39.6705 73.705 39.5814 73.3679 39.4034C73.0346 39.2254 72.7732 39.017 72.5838 38.7784C72.3944 38.5398 72.2486 38.3277 72.1463 38.142H72.044V42.7727H70.3452ZM72.0099 35.1364C72.0099 35.75 72.099 36.2879 72.277 36.75C72.455 37.2121 72.7126 37.5739 73.0497 37.8352C73.3868 38.0928 73.7997 38.2216 74.2884 38.2216C74.7959 38.2216 75.2202 38.0871 75.5611 37.8182C75.902 37.5455 76.1596 37.1761 76.3338 36.7102C76.5118 36.2443 76.6009 35.7197 76.6009 35.1364C76.6009 34.5606 76.5137 34.0436 76.3395 33.5852C76.169 33.1269 75.9115 32.7652 75.5668 32.5C75.2259 32.2348 74.7997 32.1023 74.2884 32.1023C73.7959 32.1023 73.3793 32.2292 73.0384 32.483C72.7012 32.7367 72.4455 33.0909 72.2713 33.5455C72.0971 34 72.0099 34.5303 72.0099 35.1364ZM80.2202 42.7727V30.7727H81.8793V32.1875H82.0213C82.1198 32.0057 82.2618 31.7955 82.4474 31.5568C82.633 31.3182 82.8906 31.1098 83.2202 30.9318C83.5497 30.75 83.9853 30.6591 84.527 30.6591C85.2315 30.6591 85.8603 30.8371 86.4134 31.1932C86.9664 31.5492 87.4001 32.0625 87.7145 32.733C88.0327 33.4034 88.1918 34.2102 88.1918 35.1534C88.1918 36.0966 88.0346 36.9053 87.7202 37.5795C87.4058 38.25 86.974 38.767 86.4247 39.1307C85.8755 39.4905 85.2486 39.6705 84.544 39.6705C84.0137 39.6705 83.58 39.5814 83.2429 39.4034C82.9096 39.2254 82.6482 39.017 82.4588 38.7784C82.2694 38.5398 82.1236 38.3277 82.0213 38.142H81.919V42.7727H80.2202ZM81.8849 35.1364C81.8849 35.75 81.974 36.2879 82.152 36.75C82.33 37.2121 82.5876 37.5739 82.9247 37.8352C83.2618 38.0928 83.6747 38.2216 84.1634 38.2216C84.6709 38.2216 85.0952 38.0871 85.4361 37.8182C85.777 37.5455 86.0346 37.1761 86.2088 36.7102C86.3868 36.2443 86.4759 35.7197 86.4759 35.1364C86.4759 34.5606 86.3887 34.0436 86.2145 33.5852C86.044 33.1269 85.7865 32.7652 85.4418 32.5C85.1009 32.2348 84.6747 32.1023 84.1634 32.1023C83.6709 32.1023 83.2543 32.2292 82.9134 32.483C82.5762 32.7367 82.3205 33.0909 82.1463 33.5455C81.9721 34 81.8849 34.5303 81.8849 35.1364ZM96.6349 32.9034L95.0952 33.1761C95.0308 32.9792 94.9285 32.7917 94.7884 32.6136C94.652 32.4356 94.4664 32.2898 94.2315 32.1761C93.9967 32.0625 93.7031 32.0057 93.3509 32.0057C92.8698 32.0057 92.4683 32.1136 92.1463 32.3295C91.8243 32.5417 91.6634 32.8163 91.6634 33.1534C91.6634 33.4451 91.7713 33.6799 91.9872 33.858C92.2031 34.036 92.5516 34.1818 93.0327 34.2955L94.419 34.6136C95.2221 34.7992 95.8205 35.0852 96.2145 35.4716C96.6084 35.858 96.8054 36.3598 96.8054 36.9773C96.8054 37.5 96.6539 37.9659 96.3509 38.375C96.0516 38.7803 95.633 39.0985 95.0952 39.3295C94.5611 39.5606 93.9418 39.6761 93.2372 39.6761C92.2599 39.6761 91.4626 39.4678 90.8452 39.0511C90.2277 38.6307 89.849 38.0341 89.7088 37.2614L91.3509 37.0114C91.4531 37.4394 91.6634 37.7633 91.9815 37.983C92.2997 38.1989 92.7145 38.3068 93.2259 38.3068C93.7827 38.3068 94.2277 38.1913 94.5611 37.9602C94.8944 37.7254 95.0611 37.4394 95.0611 37.1023C95.0611 36.8295 94.9588 36.6004 94.7543 36.4148C94.5535 36.2292 94.2448 36.089 93.8281 35.9943L92.3509 35.6705C91.5365 35.4848 90.9342 35.1894 90.544 34.7841C90.1577 34.3788 89.9645 33.8655 89.9645 33.2443C89.9645 32.7292 90.1084 32.2784 90.3963 31.892C90.6842 31.5057 91.0819 31.2045 91.5895 30.9886C92.0971 30.7689 92.6785 30.6591 93.3338 30.6591C94.277 30.6591 95.0194 30.8636 95.5611 31.2727C96.1027 31.678 96.4607 32.2216 96.6349 32.9034ZM102.747 30.7727V32.1364H97.9801V30.7727H102.747ZM99.2585 28.6818H100.957V36.9375C100.957 37.267 101.007 37.5152 101.105 37.6818C101.204 37.8447 101.33 37.9564 101.486 38.017C101.645 38.0739 101.817 38.1023 102.003 38.1023C102.139 38.1023 102.259 38.0928 102.361 38.0739C102.463 38.0549 102.543 38.0398 102.599 38.0284L102.906 39.4318C102.808 39.4697 102.668 39.5076 102.486 39.5455C102.304 39.5871 102.077 39.6098 101.804 39.6136C101.357 39.6212 100.94 39.5417 100.554 39.375C100.168 39.2083 99.8551 38.9508 99.6165 38.6023C99.3778 38.2538 99.2585 37.8163 99.2585 37.2898V28.6818ZM108.209 39.6761C107.391 39.6761 106.677 39.4886 106.067 39.1136C105.457 38.7386 104.983 38.214 104.646 37.5398C104.309 36.8655 104.141 36.0777 104.141 35.1761C104.141 34.2708 104.309 33.4792 104.646 32.8011C104.983 32.1231 105.457 31.5966 106.067 31.2216C106.677 30.8466 107.391 30.6591 108.209 30.6591C109.027 30.6591 109.741 30.8466 110.351 31.2216C110.961 31.5966 111.434 32.1231 111.771 32.8011C112.108 33.4792 112.277 34.2708 112.277 35.1761C112.277 36.0777 112.108 36.8655 111.771 37.5398C111.434 38.214 110.961 38.7386 110.351 39.1136C109.741 39.4886 109.027 39.6761 108.209 39.6761ZM108.214 38.25C108.745 38.25 109.184 38.1098 109.533 37.8295C109.881 37.5492 110.139 37.1761 110.305 36.7102C110.476 36.2443 110.561 35.7311 110.561 35.1705C110.561 34.6136 110.476 34.1023 110.305 33.6364C110.139 33.1667 109.881 32.7898 109.533 32.5057C109.184 32.2216 108.745 32.0795 108.214 32.0795C107.68 32.0795 107.237 32.2216 106.885 32.5057C106.536 32.7898 106.277 33.1667 106.107 33.6364C105.94 34.1023 105.857 34.6136 105.857 35.1705C105.857 35.7311 105.94 36.2443 106.107 36.7102C106.277 37.1761 106.536 37.5492 106.885 37.8295C107.237 38.1098 107.68 38.25 108.214 38.25ZM114.173 39.5V30.7727H115.815V32.1591H115.906C116.065 31.6894 116.346 31.3201 116.747 31.0511C117.152 30.7784 117.611 30.642 118.122 30.642C118.228 30.642 118.353 30.6458 118.497 30.6534C118.645 30.661 118.76 30.6705 118.844 30.6818V32.3068C118.776 32.2879 118.654 32.267 118.48 32.2443C118.306 32.2178 118.132 32.2045 117.957 32.2045C117.556 32.2045 117.198 32.2898 116.884 32.4602C116.573 32.6269 116.327 32.8598 116.145 33.1591C115.963 33.4545 115.872 33.7917 115.872 34.1705V39.5H114.173ZM123.763 39.6761C122.903 39.6761 122.162 39.4924 121.541 39.125C120.924 38.7538 120.446 38.233 120.109 37.5625C119.776 36.8883 119.609 36.0985 119.609 35.1932C119.609 34.2992 119.776 33.5114 120.109 32.8295C120.446 32.1477 120.916 31.6155 121.518 31.233C122.125 30.8504 122.833 30.6591 123.643 30.6591C124.136 30.6591 124.613 30.7405 125.075 30.9034C125.537 31.0663 125.952 31.322 126.32 31.6705C126.687 32.0189 126.977 32.4716 127.189 33.0284C127.401 33.5814 127.507 34.2538 127.507 35.0455V35.6477H120.57V34.375H125.842C125.842 33.928 125.751 33.5322 125.57 33.1875C125.388 32.839 125.132 32.5644 124.803 32.3636C124.477 32.1629 124.094 32.0625 123.655 32.0625C123.178 32.0625 122.761 32.1799 122.405 32.4148C122.053 32.6458 121.78 32.9489 121.587 33.3239C121.397 33.6951 121.303 34.0985 121.303 34.5341V35.5284C121.303 36.1117 121.405 36.608 121.609 37.017C121.818 37.4261 122.107 37.7386 122.479 37.9545C122.85 38.1667 123.284 38.2727 123.78 38.2727C124.102 38.2727 124.395 38.2273 124.661 38.1364C124.926 38.0417 125.155 37.9015 125.348 37.7159C125.541 37.5303 125.689 37.3011 125.791 37.0284L127.399 37.3182C127.27 37.7917 127.039 38.2064 126.706 38.5625C126.376 38.9148 125.962 39.1894 125.462 39.3864C124.965 39.5795 124.399 39.6761 123.763 39.6761Z" fill="white"/>
</svg>
