<svg width="55" height="32" viewBox="0 0 55 32" fill="none" xmlns="http://www.w3.org/2000/svg">
<path d="M49.0622 23.3878L46.9785 23.0095L47.9267 21.1796L47.1506 19.0903L47.4275 18.9873L48.1103 20.8253L48.9897 19.1281L49.252 19.2642L48.2492 21.1994L49.0622 23.3878ZM47.425 22.79L48.6045 23.0042L48.0656 21.5536L47.425 22.79Z" fill="#8B8E8E"/>
<path d="M47.343 29.2761L47.0685 29.1666L47.8746 27.1415L46.8489 25.0446L48.9598 25.2143L48.1976 27.1293L49.1768 29.1313L48.9115 29.2613L48.05 27.5L47.343 29.2761ZM47.3424 25.3809L48.0223 26.7708L48.5373 25.477L47.3424 25.3809Z" fill="#8B8E8E"/>
<path d="M46.8391 25.2091L45.0106 24.2603L42.9227 25.0369L42.8198 24.7598L44.6566 24.0765L42.9606 23.1965L43.0966 22.934L45.0303 23.9375L47.2172 23.124L46.8391 25.2091ZM45.3844 24.1212L46.6199 24.7623L46.8339 23.582L45.3844 24.1212Z" fill="#8B8E8E"/>
<path d="M48.9766 25.4164V23.2971L50.945 23.9041L52.8607 22.7668L53.0114 23.0211L51.3261 24.0215L53.1518 24.5845L53.0648 24.867L50.9831 24.2252L48.9766 25.4164ZM49.2721 23.6976V24.8972L50.6021 24.1076L49.2721 23.6976Z" fill="#8B8E8E"/>
<path d="M46.4103 24.0523L45.7456 22.1014L43.7009 21.2172L43.8181 20.9458L45.6169 21.7236L45.0003 19.9142L45.2799 19.8187L45.983 21.8819L48.1246 22.808L46.4103 24.0523ZM46.1116 22.2597L46.5608 23.5779L47.5313 22.8736L46.1116 22.2597Z" fill="#8B8E8E"/>
<path d="M51.1436 28.115L50.0837 26.2105L47.8113 25.6819L49.276 24.1514L50.2781 25.9522L52.4477 26.4569L52.3809 26.7448L50.4721 26.3009L51.4016 27.9712L51.1436 28.115ZM48.3835 25.5115L49.8897 25.8619L49.2126 24.6451L48.3835 25.5115Z" fill="#8B8E8E"/>
<path d="M45.0339 28.4223L44.7628 28.305L45.54 26.5049L43.7319 27.1219L43.6365 26.8421L45.6982 26.1386L46.6236 23.9954L47.867 25.7109L45.9175 26.3761L45.0339 28.4223ZM46.6891 24.5891L46.0757 26.0097L47.3929 25.5602L46.6891 24.5891Z" fill="#8B8E8E"/>
<path d="M49.4957 24.3085L47.9663 22.8427L49.7658 21.8399L50.2701 19.6687L50.5578 19.7356L50.1142 21.6457L51.7833 20.7156L51.9271 20.9739L50.024 22.0345L49.4957 24.3085ZM48.4596 22.9062L49.3254 23.736L49.6755 22.2286L48.4596 22.9062Z" fill="#8B8E8E"/>
<path d="M47.9899 29.75C44.9132 29.75 42.4102 27.2451 42.4102 24.1662C42.4102 21.0873 44.9132 18.5824 47.9899 18.5824C51.0666 18.5824 53.5697 21.0873 53.5697 24.1662C53.5696 27.2451 51.0665 29.75 47.9899 29.75ZM47.9899 19.2231C45.2662 19.2231 43.0503 21.4406 43.0503 24.1663C43.0503 26.8919 45.2662 29.1094 47.9899 29.1094C50.7136 29.1094 52.9295 26.892 52.9295 24.1663C52.9295 21.4406 50.7136 19.2231 47.9899 19.2231Z" fill="#8B8E8E"/>
<path d="M49.9787 24.1663C49.9787 25.2658 49.0881 26.1571 47.9893 26.1571C46.8907 26.1571 46 25.2658 46 24.1663C46 23.0668 46.8906 22.1755 47.9893 22.1755C49.088 22.1755 49.9787 23.0668 49.9787 24.1663Z" fill="#8B8E8E"/>
<path d="M47.9899 17.2778C44.1883 17.2778 41.1064 20.3619 41.1064 24.1663C41.1064 27.9707 44.1883 31.0548 47.9899 31.0548C51.7916 31.0548 54.8735 27.9707 54.8735 24.1663C54.8734 20.3619 51.7916 17.2778 47.9899 17.2778ZM47.9899 29.4297C45.0852 29.4297 42.7303 27.0732 42.7303 24.1663C42.7303 21.2594 45.0852 18.9028 47.9899 18.9028C50.8948 18.9028 53.2496 21.2594 53.2496 24.1663C53.2496 27.0732 50.8948 29.4297 47.9899 29.4297Z" fill="#4F5151"/>
<path d="M42.7299 24.1661C42.7299 21.2591 45.0847 18.9026 47.9895 18.9026C49.623 18.9026 51.0825 19.6478 52.0472 20.817C51.097 19.4516 49.5171 18.5578 47.7284 18.5578C44.8235 18.5578 42.4688 20.9143 42.4688 23.8212C42.4688 25.0935 42.9198 26.2603 43.6707 27.1703C43.0778 26.3184 42.7299 25.283 42.7299 24.1661Z" fill="#434444"/>
<path d="M53.349 19.8437C54.1444 20.9671 54.6119 22.3394 54.6119 23.8211C54.6119 27.6255 51.5301 30.7096 47.7284 30.7096C45.5626 30.7096 43.6307 29.7083 42.3689 28.1434C43.6158 29.9047 45.6684 31.0544 47.9895 31.0544C51.7912 31.0544 54.8731 27.9703 54.8731 24.1659C54.873 22.5289 54.302 21.0256 53.349 19.8437Z" fill="#434444"/>
<path d="M49.3461 24.1661C49.3461 24.916 48.7386 25.5238 47.9892 25.5238C47.24 25.5238 46.6326 24.916 46.6326 24.1661C46.6326 23.4163 47.24 22.8084 47.9892 22.8084C48.7386 22.8084 49.3461 23.4163 49.3461 24.1661Z" fill="#B6B7B7"/>
<path d="M42.7303 15.8928C42.7111 16.0759 47.2584 24.3982 47.2584 24.3982C47.2584 24.3982 47.64 24.9021 48.2131 24.7556C48.7862 24.6091 48.6214 23.8149 48.6214 23.8149L45.3827 14.8241L42.7303 15.8928Z" fill="#8B8E8E"/>
<path d="M30.9906 6.53957C30.9328 6.56528 30.8691 6.58926 30.8342 6.64209C30.7585 6.75684 30.8898 6.91654 31.0271 6.92013C31.1644 6.92372 31.2836 6.83153 31.3882 6.74238C31.8045 6.3878 32.1976 6.00578 32.5641 5.59972C32.8443 5.28928 33.7047 3.75275 32.7936 4.35053C32.0016 4.8703 31.9337 6.12053 30.9906 6.53957Z" fill="#2B2B2B"/>
<path d="M35.63 3.18998C35.3414 3.15704 35.05 3.19998 34.7626 3.24282C32.9634 3.51118 31.1642 3.77944 29.365 4.0478C29.2398 4.54273 29.2884 5.07984 29.5003 5.54422C29.5541 5.66206 29.6239 5.78138 29.7379 5.84286C29.9094 5.93532 30.1197 5.86945 30.3026 5.8022C31.1778 5.4803 32.053 5.15838 32.9282 4.83642C33.2377 4.7226 33.5658 4.60692 33.8902 4.66628C34.3627 4.75277 34.693 5.18611 34.8892 5.625C35.0854 6.06377 35.2001 6.54544 35.4791 6.93671C35.9231 7.55938 36.7254 7.84845 37.4898 7.84682C38.254 7.84519 38.9939 7.59264 39.7068 7.31705C41.1488 6.75944 40.3403 5.60048 39.347 5.04494C38.2781 4.44717 36.8466 3.32919 35.63 3.18998Z" fill="#2B2B2B"/>
<path d="M35.4983 0.982555C36.149 0.825407 36.8059 1.1908 37.342 1.59191C38.4698 2.43565 39.4269 3.50699 40.1389 4.72276C40.4413 5.23916 40.7074 5.83514 40.5772 6.41937C40.4114 7.16359 39.5982 7.64716 38.8381 7.5934C37.2287 7.47952 37.5772 6.07056 37.2044 4.9889C37.0768 4.61856 35.7458 0.922762 35.4983 0.982555Z" fill="#B6B7B7"/>
<path d="M11.6222 23.3878L9.53857 23.0095L10.4868 21.1796L9.7106 19.0903L9.98752 18.9873L10.6704 20.8253L11.5498 19.1281L11.8121 19.2642L10.8094 21.1994L11.6222 23.3878ZM9.98507 22.79L11.1646 23.0042L10.6258 21.5536L9.98507 22.79Z" fill="#8B8E8E"/>
<path d="M9.90259 29.2761L9.62811 29.1666L10.4342 27.1415L9.40845 25.0446L11.5193 25.2143L10.7571 27.1293L11.7364 29.1313L11.471 29.2613L10.6095 27.5L9.90259 29.2761ZM9.90188 25.3809L10.5818 26.7708L11.0968 25.477L9.90188 25.3809Z" fill="#8B8E8E"/>
<path d="M9.39827 25.2091L7.56974 24.2603L5.48189 25.0369L5.37891 24.7598L7.21564 24.0765L5.5197 23.1965L5.65571 22.934L7.58945 23.9375L9.77627 23.124L9.39827 25.2091ZM7.94356 24.1212L9.17904 24.7623L9.39306 23.582L7.94356 24.1212Z" fill="#8B8E8E"/>
<path d="M11.5366 25.4164V23.2971L13.5051 23.9041L15.4207 22.7668L15.5715 23.0211L13.8862 24.0215L15.7118 24.5845L15.6249 24.867L13.5432 24.2252L11.5366 25.4164ZM11.8321 23.6976V24.8972L13.1621 24.1076L11.8321 23.6976Z" fill="#8B8E8E"/>
<path d="M8.96997 24.0523L8.30521 22.1014L6.2605 21.2172L6.37766 20.9458L8.17648 21.7237L7.55991 19.9142L7.83949 19.8187L8.54253 21.882L10.6842 22.808L8.96997 24.0523ZM8.67127 22.2597L9.12043 23.5779L10.0908 22.8736L8.67127 22.2597Z" fill="#8B8E8E"/>
<path d="M13.7031 28.115L12.6433 26.2105L10.3708 25.6819L11.8356 24.1514L12.8377 25.9522L15.0073 26.4569L14.9405 26.7448L13.0317 26.3009L13.9612 27.9712L13.7031 28.115ZM10.943 25.5115L12.4492 25.8619L11.7721 24.6451L10.943 25.5115Z" fill="#8B8E8E"/>
<path d="M7.59356 28.4223L7.32234 28.305L8.09964 26.5048L6.29137 27.1219L6.19604 26.8421L8.25782 26.1386L9.18325 23.9954L10.4266 25.7109L8.4771 26.3761L7.59356 28.4223ZM9.24859 24.5891L8.63523 26.0097L9.95245 25.5602L9.24859 24.5891Z" fill="#8B8E8E"/>
<path d="M12.0553 24.3085L10.5259 22.8427L12.3254 21.8399L12.8297 19.6687L13.1174 19.7356L12.6738 21.6457L14.3429 20.7156L14.4866 20.9739L12.5835 22.0345L12.0553 24.3085ZM11.0193 22.9062L11.885 23.736L12.2351 22.2286L11.0193 22.9062Z" fill="#8B8E8E"/>
<path d="M10.549 29.75C7.4723 29.75 4.96924 27.2451 4.96924 24.1662C4.96924 21.0873 7.4723 18.5824 10.549 18.5824C13.6256 18.5824 16.1287 21.0873 16.1287 24.1662C16.1287 27.2451 13.6256 29.75 10.549 29.75ZM10.549 19.2231C7.82526 19.2231 5.60933 21.4406 5.60933 24.1663C5.60933 26.8919 7.82521 29.1094 10.549 29.1094C13.2726 29.1094 15.4885 26.892 15.4885 24.1663C15.4885 21.4406 13.2727 19.2231 10.549 19.2231Z" fill="#8B8E8E"/>
<path d="M12.5387 24.1663C12.5387 25.2658 11.6481 26.1571 10.5494 26.1571C9.45072 26.1571 8.56006 25.2658 8.56006 24.1663C8.56006 23.0668 9.45072 22.1755 10.5494 22.1755C11.6481 22.1755 12.5387 23.0668 12.5387 24.1663Z" fill="#8B8E8E"/>
<path d="M10.5495 17.2778C6.74784 17.2778 3.66602 20.3619 3.66602 24.1663C3.66602 27.9707 6.74784 31.0548 10.5495 31.0548C14.3511 31.0548 17.433 27.9707 17.433 24.1663C17.433 20.3619 14.3511 17.2778 10.5495 17.2778ZM10.5495 29.4297C7.64464 29.4297 5.28982 27.0732 5.28982 24.1663C5.28982 21.2594 7.64464 18.9028 10.5495 18.9028C13.4543 18.9028 15.8091 21.2594 15.8091 24.1663C15.8091 27.0732 13.4543 29.4297 10.5495 29.4297Z" fill="#4F5151"/>
<path d="M5.28992 24.1661C5.28992 21.2591 7.64479 18.9026 10.5496 18.9026C12.1831 18.9026 13.6426 19.6478 14.6073 20.817C13.6571 19.4516 12.0772 18.5578 10.2885 18.5578C7.38363 18.5578 5.02881 20.9143 5.02881 23.8212C5.02881 25.0935 5.47992 26.2603 6.23071 27.1703C5.63788 26.3184 5.28992 25.283 5.28992 24.1661Z" fill="#434444"/>
<path d="M15.909 19.8437C16.7043 20.9671 17.1719 22.3394 17.1719 23.8211C17.1719 27.6255 14.0901 30.7096 10.2884 30.7096C8.12257 30.7096 6.19072 29.7083 4.92896 28.1434C6.17584 29.9047 8.22849 31.0544 10.5496 31.0544C14.3512 31.0544 17.4331 27.9703 17.4331 24.1659C17.433 22.5289 16.862 21.0256 15.909 19.8437Z" fill="#434444"/>
<path d="M11.9061 24.1661C11.9061 24.916 11.2987 25.5238 10.5494 25.5238C9.80007 25.5238 9.19263 24.916 9.19263 24.1661C9.19263 23.4163 9.80007 22.8084 10.5494 22.8084C11.2987 22.8084 11.9061 23.4163 11.9061 24.1661Z" fill="#B6B7B7"/>
<path d="M13.4781 16.938L7.59892 14.8291C7.59892 14.8291 7.20267 14.7066 7.0195 15.6723C6.91097 16.2448 7.21902 16.7717 7.21902 16.7717L14.5157 19.7262L13.4781 16.938Z" fill="#B6B7B7"/>
<path d="M13.6104 19.7608L6.44313 17.0872C6.44313 17.0872 6.02699 17.0878 5.79842 17.789C5.52645 18.6236 5.85393 18.9903 5.85393 18.9903L14.7287 22.6452L13.6104 19.7608Z" fill="#B6B7B7"/>
<path d="M13.1243 16.5289C13.2093 19.2728 13.355 22.1599 14.8129 24.4852C14.8804 24.5929 14.9527 24.7012 15.0543 24.7775C15.1758 24.8685 15.3281 24.9057 15.4761 24.9395C17.6204 25.429 19.8289 25.6358 22.0267 25.5528C21.2516 24.0452 19.8782 22.9224 19.0389 21.4498C18.435 20.3904 18.1197 18.5217 17.0589 17.8125C16.0132 17.1133 14.341 16.763 13.1243 16.5289Z" fill="#2B2B2B"/>
<path d="M1.29649 14.65C1.50524 15.1141 1.67504 15.5958 1.80345 16.0884C1.43034 16.2999 1.096 16.5798 0.822021 16.9099C1.07819 17.4691 1.4274 17.9855 1.85092 18.4315C2.26597 18.1643 2.68102 17.8972 3.09601 17.6301C3.17141 17.5815 3.25197 17.5266 3.27967 17.4413C3.30161 17.3739 3.2858 17.3006 3.2682 17.2319C3.13078 16.6957 2.88928 16.1864 2.56125 15.7407C3.09591 15.2565 3.72964 14.8938 4.38283 14.588C6.03857 13.813 7.85732 13.3994 9.68319 13.3512C11.6123 13.3005 13.2981 13.7752 15.1153 14.3226C14.3978 12.3587 13.092 12.0794 11.2015 12.0048C8.9935 11.9177 6.77046 12.2598 4.68859 13.0002C3.50162 13.4225 2.36038 13.9747 1.29649 14.65Z" fill="#2B2B2B"/>
<path d="M11.3706 11.5851C13.1103 12.5906 14.6694 13.9865 15.6009 15.7677C15.8834 16.3081 16.1079 16.8818 16.4508 17.386C17.1971 18.483 18.4507 19.1545 19.7433 19.4507C21.0359 19.7469 22.3797 19.7059 23.7037 19.6322C24.3669 19.5952 25.109 19.5116 25.5288 18.9965C25.8882 18.5556 25.896 17.9262 25.8053 17.3646C25.4519 15.1776 23.8865 13.3375 22.0259 12.137C20.1653 10.9365 18.0146 10.2816 15.8954 9.64095C13.724 8.98452 11.5555 8.31771 9.38104 7.67161C8.77017 7.49011 8.07766 7.2236 7.44876 7.47234C6.74615 7.75027 6.00138 8.67376 5.79834 9.37335C7.65446 10.16 9.59299 10.5577 11.3706 11.5851Z" fill="#434444"/>
<path d="M16.052 16.7244L19.3924 24.4242C19.6763 25.0785 20.2968 25.5237 21.0073 25.5825L37.755 26.9691C38.9865 27.0711 39.9953 26.0074 39.8315 24.7817C39.6921 23.7382 40.0285 22.4907 40.2206 21.8622C40.8373 19.8439 42.6382 18.032 44.1141 17.2776C45.7467 16.4431 49.0446 15.1399 49.0446 15.1399C49.9031 14.4911 47.804 12.9184 47.1473 12.0657L45.1744 9.50433C44.6188 8.78311 43.6361 8.54688 42.8138 8.93684L38.7021 10.8869C38.0934 11.1756 38.0166 10.5953 37.9451 11.2655C37.7443 13.1476 36.8352 18.0996 35.4382 18.9456C33.7918 19.9427 27.4012 17.4824 25.8541 16.8622C25.6271 16.7712 25.3851 16.724 25.1405 16.7232L16.4608 16.696L16.052 16.7244Z" fill="#434444"/>
<path d="M37.303 10.5723C37.4778 10.8386 37.6641 11.1157 37.945 11.2657C38.4399 11.5301 39.0393 11.3202 39.5843 11.1871C41.2947 10.7694 43.1935 11.219 44.5355 12.3594C45.3561 13.0566 45.9693 13.9845 46.8437 14.6129C47.7181 15.2412 49.0421 15.4775 49.8112 14.7239C49.594 12.7362 47.9631 11.2428 46.4413 9.94695C43.993 7.86211 41.6559 5.46818 39.2076 3.38329C39.6471 3.75754 36.1494 6.57415 35.9525 6.81577C34.9816 8.00751 36.5897 9.48572 37.303 10.5723Z" fill="#404040"/>
<path d="M13.6502 11.6995C15.2187 12.6009 16.4831 13.9692 17.4609 15.4919C18.4387 17.0147 19.1457 18.6944 19.7787 20.39C19.8429 20.5619 19.9181 20.7482 20.0787 20.8367C20.173 20.8887 20.284 20.8988 20.3914 20.9078C21.3863 20.9915 22.3812 21.0752 23.376 21.1588C23.731 21.1887 24.1019 21.2163 24.4311 21.0799C24.8779 20.8949 25.1549 20.4498 25.5388 20.1556C26.4776 19.4365 27.8537 19.7304 28.9304 19.2416C29.0505 19.187 29.1698 19.12 29.2504 19.0154C29.4456 18.762 29.3492 18.3973 29.2281 18.1013C28.7403 16.9094 27.989 15.8424 27.1605 14.8568C26.2936 13.8255 25.3314 12.868 24.2427 12.0748C22.0087 10.4473 19.3071 9.56101 16.5807 9.11038C14.4508 8.75841 12.2903 8.65894 10.1357 8.59534C9.63096 8.5805 7.70612 8.21494 8.54561 9.12761C9.11683 9.74865 10.1339 10.1153 10.8904 10.4418C11.8185 10.8422 12.7714 11.1945 13.6502 11.6995Z" fill="#404040"/>
<path d="M8.21742 9.05885C8.71514 9.47611 10.9627 10.1172 11.6046 10.2146C15.1706 10.7557 17.2437 11.8815 20.5035 13.4263C21.601 13.9464 22.8263 14.7613 22.8131 15.9765C22.8108 16.1934 22.7717 16.4319 22.8959 16.6097C23.008 16.7703 23.2164 16.8253 23.4073 16.8689C25.3785 17.3196 27.3496 17.7701 29.3208 18.2207C28.8902 16.9464 28.741 15.5942 28.3761 14.2995C28.0111 13.0048 27.3766 11.7091 26.2521 10.9719C24.5647 9.86553 22.3302 10.3125 20.3624 9.8677C20.0226 9.79084 19.6721 9.6763 19.4357 9.42017C19.2033 9.16806 19.1152 8.81604 18.9242 8.53115C18.4231 7.78356 17.2569 7.98415 16.3579 7.95126C14.687 7.89022 12.5393 7.99942 10.3884 7.56597C8.13181 7.11121 5.8212 7.05 8.21742 9.05885Z" fill="#2B2B2B"/>
<path d="M39.7907 17.2732C38.9415 18.4974 38.4725 19.9531 38.2352 21.4242C38.148 21.9644 38.0879 22.5184 37.8645 23.0178C37.6411 23.5173 37.2149 23.9646 36.6741 24.0452C36.0468 24.1388 35.366 23.7366 34.7982 24.0197C34.5981 24.1194 34.4312 24.3648 34.5395 24.5605C34.6167 24.7 34.7926 24.7443 34.949 24.7749C35.5134 24.8854 36.0777 24.9959 36.642 25.1065C37.1175 25.1996 37.6657 25.2758 38.0384 24.9659C38.3892 24.6743 38.4351 24.1634 38.4769 23.7089C38.5909 22.4709 38.8707 21.2482 39.3065 20.084C39.6622 19.1337 40.1342 18.2045 40.8583 17.4941C41.8432 16.5277 43.2124 16.0476 44.5739 15.8263C44.83 15.7847 45.0981 15.7471 45.3112 15.5988C45.5243 15.4505 45.6586 15.1514 45.5334 14.9238C45.4529 14.7773 45.2899 14.6978 45.1324 14.642C43.1945 13.9567 40.833 15.7708 39.7907 17.2732Z" fill="#2B2B2B"/>
<path d="M36.7855 21.4231L29.7391 20.13C29.5763 20.1001 29.4685 19.9439 29.4984 19.781C29.5282 19.6181 29.6844 19.5103 29.8471 19.5401L36.8935 20.8333C37.0563 20.8631 37.164 21.0194 37.1342 21.1822C37.1043 21.3451 36.9482 21.4529 36.7855 21.4231Z" fill="#2B2B2B"/>
<path d="M36.6135 22.3585L27.4517 20.6771C27.2889 20.6473 27.1812 20.491 27.211 20.3282C27.2408 20.1653 27.397 20.0575 27.5597 20.0873L36.7216 21.7686C36.8843 21.7985 36.992 21.9547 36.9623 22.1176C36.9324 22.2805 36.7763 22.3883 36.6135 22.3585Z" fill="#2B2B2B"/>
<path d="M36.4422 23.2936L25.8955 21.3582C25.7328 21.3283 25.625 21.1721 25.6549 21.0093C25.6847 20.8464 25.8409 20.7386 26.0036 20.7684L36.5503 22.7038C36.713 22.7337 36.8207 22.8899 36.7909 23.0527C36.7611 23.2156 36.6049 23.3235 36.4422 23.2936Z" fill="#2B2B2B"/>
<g opacity="0.56">
<path d="M37.4221 7.82419C38.4066 7.36497 39.4825 7.10302 40.5677 7.05834C40.9189 7.04388 41.2789 7.05335 41.6086 7.17533C42.0099 7.32372 42.367 7.63677 42.7948 7.63367C42.8714 7.44255 42.7068 7.24523 42.5496 7.11237C41.672 6.37044 40.5499 5.89519 39.401 5.89008C38.4844 5.88601 37.5561 6.19682 36.8503 6.78737C36.609 6.98909 36.079 7.33834 36.1654 7.69417C36.3105 8.29129 37.0801 7.98373 37.4221 7.82419Z" fill="white"/>
</g>
<g opacity="0.56">
<path d="M19.6154 14.0999C20.2456 14.5818 20.7354 15.2807 20.8494 16.0662C20.8794 16.2733 20.8842 16.4867 20.9545 16.6838C21.0248 16.8809 21.181 17.0656 21.3884 17.0929C21.434 17.0989 21.4839 17.0961 21.521 17.0688C21.5597 17.0405 21.5771 16.9918 21.5899 16.9455C21.733 16.4289 21.5733 15.88 21.3847 15.3783C21.1647 14.7928 20.8842 14.1978 20.3852 13.8212C20.1264 13.6259 19.8228 13.5006 19.523 13.3775C19.2947 13.2838 16.895 12.1972 17.0443 12.9418C17.0925 13.1825 18.1332 13.3401 18.3347 13.415C18.7905 13.5846 19.2279 13.8035 19.6154 14.0999Z" fill="white"/>
</g>
<g opacity="0.56">
<path d="M6.53699 18.2051C6.6528 18.2829 6.79061 18.3193 6.92543 18.3551C8.44689 18.7589 9.94565 19.2484 11.4123 19.8205C11.8334 19.9847 12.2603 20.1578 12.7111 20.191C12.7441 20.1933 12.7807 20.1939 12.806 20.1726C12.829 20.1533 12.8362 20.1211 12.8376 20.0911C12.8472 19.8771 12.6394 19.7219 12.4456 19.6309C12.0538 19.4468 11.6264 19.3549 11.2074 19.2464C10.3312 19.0195 9.4753 18.7145 8.65303 18.3363C8.132 18.0966 7.61641 17.8239 7.05514 17.6896C6.90359 17.6533 6.60065 17.5448 6.4522 17.6363C6.22401 17.777 6.36632 18.0904 6.53699 18.2051Z" fill="white"/>
</g>
<g opacity="0.56">
<path d="M7.43915 15.7558C7.57538 15.9313 7.81079 15.9892 8.02791 16.0363C9.10901 16.2704 10.1944 16.5122 11.2218 16.9223C11.6123 17.0782 12.0023 17.2604 12.4213 17.2944C12.4965 17.1853 12.4469 17.0266 12.3483 16.9382C12.2497 16.8498 12.1162 16.8139 11.9884 16.7794C10.8775 16.4801 9.79359 16.0804 8.75415 15.5868C8.44295 15.439 8.06653 15.2138 7.7127 15.2048C7.42937 15.1976 7.2455 15.5061 7.43915 15.7558Z" fill="white"/>
</g>
</svg>
