<svg width="64" height="26" viewBox="0 0 64 26" fill="none" xmlns="http://www.w3.org/2000/svg">
<path d="M13.4673 1.42288C13.4673 1.42288 12.9137 0.296928 11.368 0.373283C11.368 0.373283 10.8909 0.94582 11.4443 1.55647C11.9977 2.16712 13.4673 1.42288 13.4673 1.42288Z" fill="#100607"/>
<path d="M0.599598 14.3117C0.638355 14.2052 0.683903 14.1237 0.736965 14.0756C1.21383 13.643 1.28422 13.2347 1.28422 13.2347V10.9764C1.28422 10.3671 2.6837 10.4112 4.20239 9.96976C5.72102 9.52831 6.41419 8.34512 6.38776 7.94782C6.36119 7.55051 5.55774 7.30322 3.59766 7.42687C1.63752 7.55051 1.9378 7.24143 1.9378 7.24143C3.02383 6.6234 2.68819 7.109 4.72777 6.27904C6.76734 5.44907 8.59499 3.56836 8.59499 3.56836C8.59499 3.56836 5.89344 2.43817 6.25539 2.06737C6.61746 1.6965 14.458 1.02541 21.6725 1.02541C28.887 1.02541 31.5082 1.29027 33.1771 1.52871C34.8459 1.76708 40.4792 3.98337 42.7041 5.74044C44.9292 7.49751 47.5692 8.30989 47.9577 8.47762C48.3462 8.64541 51.5512 9.01621 55.6127 9.7491C59.6741 10.4819 61.2989 11.7798 61.2989 11.7798C61.2989 11.7798 62.4465 12.8395 62.9497 15.453C63.0181 15.8074 63.0593 16.1297 63.0803 16.4245C63.2148 18.3031 62.5042 19.0246 62.3668 19.2765C62.2079 19.5679 62.6135 19.8773 62.6135 19.8773C63.0548 20.1422 63.0361 20.3462 63.0361 20.3462C63.0626 21.1938 57.5506 21.9106 57.5506 21.9106C57.5506 21.9106 58.4142 13.5555 51.5433 13.7463C44.6726 13.9372 45.2628 21.6325 45.2628 21.6325L44.4616 21.6203C44.1956 21.4254 43.6957 21.2202 42.7532 21.1219C40.676 20.9052 20.7198 20.2993 19.8873 20.483C19.512 20.5659 19.327 20.8974 19.2366 21.2365L18.3793 21.2235C18.3793 21.2235 18.7882 12.335 11.9449 12.9076C5.10133 13.4801 5.99912 20.221 5.99912 20.221C5.52238 19.9297 3.52707 19.4705 2.87363 19.3116C2.22018 19.1527 1.09006 17.9077 0.736904 17.7576C0.423271 17.6241 0.29052 15.162 0.599598 14.3117Z" fill="#353544"/>
<path d="M19.7085 19.9271C19.6766 20.0342 18.3795 21.2233 18.3795 21.2233C18.3795 21.2233 16.9913 21.2546 16.618 21.0265C16.2448 20.7984 7.40874 20.1761 7.40874 20.1761C7.40874 20.1761 6.1478 20.4018 5.82422 20.1333C5.50051 19.865 4.2354 14.2439 4.2354 14.2439L13.2994 10.3652C13.2994 10.3652 21.1605 15.0736 19.7085 19.9271Z" fill="#040402"/>
<path d="M6.68233 2.19226C6.68233 2.19226 6.2962 2.00137 6.23017 2.19226C6.1644 2.38309 6.68234 3.11924 4.39213 4.78244C2.10181 6.44564 2.37462 7.29087 2.37462 7.29087L8.9726 5.5732C8.9726 5.5732 10.4176 2.60118 6.68233 2.19226Z" fill="#7C82A2"/>
<path d="M2.81066 7.15448C2.81066 7.15448 1.63831 7.15448 1.42009 7.78156C1.20194 8.40864 1.25654 10.9715 1.42009 11.1624C1.58378 11.3533 8.04565 8.84495 8.04565 8.84495C8.04565 8.84495 6.68224 6.52734 2.81066 7.15448Z" fill="#AE222F"/>
<path d="M58.4543 19.9066C58.4543 19.9066 57.8713 21.8611 57.5509 21.9105C57.2305 21.96 56.2972 21.7111 56.0068 21.6695C55.7164 21.6281 47.6272 23.1079 47.6272 23.1079C47.6272 23.1079 45.6982 22.4378 45.0138 21.39C44.3293 20.3421 43.707 14.161 43.707 14.161L51.0807 12.8958L54.5341 13.518L57.0853 15.8411L58.4543 19.9066Z" fill="#040402"/>
<path d="M20.59 20.5298L20.6516 20.436C20.6406 20.4287 19.5411 19.7005 19.3118 19.0465C19.2919 18.9898 19.2638 18.8909 19.2285 18.7656C19.0351 18.0837 18.5827 16.4867 17.5777 15.0426C16.3209 13.2366 14.642 12.2803 12.5873 12.2003C9.85881 12.0936 8.14551 13.2274 7.18934 14.197C6.25986 15.1395 5.84543 16.1155 5.76708 16.3143C3.68888 16.3585 0.592007 16.2416 0.479078 15.7378L0.369549 15.7624C0.397396 15.8864 0.48196 16.2639 3.17421 16.3918C4.48591 16.4541 5.79429 16.4261 5.80731 16.4257L5.84607 16.4248L5.85908 16.3884C5.86287 16.3777 6.2526 15.3053 7.27268 14.2723C8.21281 13.3204 9.89801 12.2081 12.5829 12.3125C15.7365 12.4353 17.9362 14.6168 19.1205 18.7962C19.1578 18.9282 19.1848 19.0236 19.2059 19.0836C19.4478 19.7735 20.5435 20.4992 20.59 20.5298Z" fill="#080705"/>
<path d="M57.8305 15.765C57.8305 15.765 56.0776 11.6103 51.8704 12.1537C47.6632 12.6972 43.8067 15.765 43.8067 15.765C43.8067 15.765 43.8067 17.7809 34.6034 17.1674C25.4004 16.5538 21.1056 16.1155 21.1056 16.1155C21.1056 16.1155 19.7909 15.5896 24.0855 15.6772C28.3804 15.7649 40.213 15.6772 40.213 15.6772C40.213 15.6772 43.8067 14.9228 43.5436 12.9773C43.2807 11.0318 34.7788 12.8938 29.257 12.3134C23.7349 11.7331 17.0737 12.9562 17.0737 12.9562C17.0737 12.9562 14.1813 10.1743 11.2889 11.0413C8.39653 11.9083 5.38306 14.7131 5.0052 14.7131C4.69638 14.7131 1.652 15.0448 0.599846 14.3114C0.638599 14.2049 0.684147 14.1235 0.737213 14.0753C1.21408 13.6427 1.28447 13.2345 1.28447 13.2345V10.9761C1.28447 10.3669 2.68394 10.411 4.20264 9.96953C5.72127 9.52808 6.41444 8.34489 6.388 7.94759C6.36144 7.55028 5.55797 7.30299 3.59789 7.42664C1.63775 7.55028 1.93805 7.2412 1.93805 7.2412C3.02408 6.62318 2.68843 7.10877 4.72801 6.27881C6.76759 5.44884 8.59523 3.56813 8.59523 3.56813C8.59523 3.56813 5.89368 2.43794 6.25563 2.06714C6.61771 1.69627 14.4582 1.02518 21.6727 1.02518C28.8872 1.02518 31.5085 1.29005 33.1774 1.52848C34.8461 1.76685 40.4794 3.98314 42.7044 5.74021C44.9294 7.49728 47.5694 8.30966 47.9579 8.47739C48.3464 8.64518 51.5515 9.01598 55.613 9.74887C59.6744 10.4817 61.2991 11.7795 61.2991 11.7795C61.2991 11.7795 62.4467 12.8393 62.95 15.4528C63.0183 15.8072 63.0595 16.1295 63.0806 16.4242C62.012 16.0183 59.5657 15.231 57.8305 15.765Z" fill="#404040"/>
<path d="M5.00489 14.7131C5.38276 14.7131 8.39622 11.9083 11.2886 11.0413C14.181 10.1743 17.0734 12.9561 17.0734 12.9561C17.0734 12.9561 23.7346 11.733 29.2567 12.3133C34.7786 12.8938 43.2804 11.0317 43.5433 12.9772C43.8064 14.9227 40.2127 15.6772 40.2127 15.6772C40.2127 15.6772 28.3801 15.7648 24.0853 15.6772C19.7905 15.5896 21.1053 16.1155 21.1053 16.1155C21.1053 16.1155 25.4002 16.5537 34.6031 17.1673C43.8064 17.7808 43.8064 15.7649 43.8064 15.7649C43.8064 15.7649 47.6629 12.6972 51.8701 12.1537C56.0772 11.6102 57.8302 15.7649 57.8302 15.7649C59.5654 15.231 62.0117 16.0182 63.0803 16.4243C63.2148 18.3029 62.5042 19.0244 62.3668 19.2763C62.2079 19.5677 62.6135 19.8771 62.6135 19.8771C63.0548 20.142 63.0361 20.346 63.0361 20.346C63.0626 21.1936 57.5506 21.9104 57.5506 21.9104C57.5506 21.9104 58.4142 13.5553 51.5433 13.7461C44.6726 13.937 45.2628 21.6323 45.2628 21.6323L44.4616 21.6201C44.1956 21.4252 43.6957 21.22 42.7532 21.1217C40.676 20.905 20.7198 20.2991 19.8873 20.4828C19.512 20.5657 19.327 20.8971 19.2366 21.2363L18.3793 21.2233C18.3793 21.2233 18.7883 12.3348 11.9449 12.9074C5.10134 13.4799 5.99912 20.2208 5.99912 20.2208C5.52238 19.9295 3.52707 19.4703 2.87363 19.3114C2.22018 19.1525 1.09006 17.9075 0.736904 17.7574C0.423206 17.624 0.290524 15.1619 0.599537 14.3116C1.6517 15.0448 4.69608 14.7131 5.00489 14.7131Z" fill="#404040"/>
<path d="M19.8874 20.4829C20.7199 20.2991 40.6761 20.9051 42.7533 21.1217C43.6958 21.22 44.1957 21.4253 44.4617 21.6201L19.2367 21.2364C19.3271 20.8972 19.5121 20.5657 19.8874 20.4829Z" fill="#040402"/>
<path d="M62.1277 14.1328C62.1277 14.1328 62.1841 12.9234 61.0797 12.1091C59.9752 11.2949 55.4363 10.0452 55.1137 10.4242C54.7913 10.8031 56.1214 11.327 56.4923 11.6738C56.8632 12.0205 58.8304 14.0361 59.83 14.1328C60.8298 14.2295 62.2167 14.828 62.1283 14.1651" fill="#D2CCCE"/>
<path d="M62.7241 16.9709C62.8127 16.8903 62.8854 16.737 62.5306 16.6726C62.1758 16.6081 61.1841 16.5355 61.1841 16.5355C61.1841 16.5355 60.7651 16.5034 60.4424 16.9709C60.1199 17.4384 59.749 18.3333 59.749 18.3333C59.749 18.3333 59.3299 19.0267 59.9829 19.0348C60.636 19.0428 62.2725 19.0348 62.2725 19.0348C62.2725 19.0348 61.9097 18.8412 61.9823 18.4865C62.055 18.1318 62.3613 17.1643 62.3613 17.1643C62.3613 17.1643 62.6355 17.0515 62.7241 16.9709Z" fill="#D2CCCE"/>
<path d="M62.2485 16.9306L61.5632 18.535C61.5632 18.535 61.4745 18.7607 61.0874 18.7284C60.7004 18.6962 60.0877 18.7768 60.0877 18.7768C60.0877 18.7768 59.87 18.8493 60.0877 18.4382C60.3054 18.027 60.9584 16.8823 60.9584 16.8823C60.9584 16.8823 60.9666 16.8338 61.3455 16.8016C61.7244 16.7694 62.3613 16.8903 62.3613 16.8903C62.3613 16.8903 62.3371 16.9548 62.2485 16.9306Z" fill="#1B1A20"/>
<path d="M45.6554 8.9151C45.6554 8.9151 41.6892 5.90625 39.3764 4.7375C37.0635 3.56882 35.7667 2.92127 32.5957 2.3737C29.4247 1.82612 26.0196 1.98756 26.0196 1.98756H18.87C18.87 1.98756 13.5478 2.07181 12.3219 2.84826C11.0961 3.62464 10.2868 4.40918 10.4095 4.78511C10.5321 5.16105 12.3709 6.5341 13.7358 6.73018C15.1005 6.92633 24.8752 7.94796 24.8752 7.94796L34.5597 8.8306L44.8169 9.61513C44.8169 9.61513 45.7071 9.77285 45.826 9.36342C45.8997 9.11016 45.6554 8.9151 45.6554 8.9151Z" fill="#7C82A2"/>
<path d="M43.9401 9.59479L43.3677 7.75437C43.3677 7.75437 39.3595 4.98075 38.2145 4.52717C37.0693 4.07353 34.095 2.47848 28.1183 2.60116C28.1183 2.60116 23.0957 2.22368 17.0383 2.38114L15.4752 6.89547L14.9437 6.81372L16.8658 2.10735C16.8658 2.10735 31.7117 1.41515 35.8834 3.17376C40.0548 4.93237 46.3123 8.73589 45.7397 9.47204L43.9401 9.59479Z" fill="#282C38"/>
<path d="M29.1555 2.3684L30.5972 8.40233L27.4582 8.12238V2.35576L29.1555 2.3684Z" fill="#292C3B"/>
<path d="M18.56 7.29816L18.8049 7.28308L18.5021 2.34809L18.2572 2.26166L18.56 7.29816Z" fill="#292C3B"/>
<path d="M16.8555 2.34593C16.8555 2.34593 16.1911 2.33246 15.6106 2.38122C15.03 2.42999 13.5405 2.42235 12.097 3.40772C10.6534 4.39302 10.7999 5.15978 10.8641 5.28439C10.9282 5.40887 10.6152 5.19507 10.6152 5.19507L10.5463 4.66803L11.6386 3.23967L13.3473 2.4885L17.0303 2.06059L16.8555 2.34593Z" fill="#292C3B"/>
<path d="M14.4229 2.38251C14.4229 2.38251 12.6961 2.49666 11.3909 3.89447C10.3528 5.00599 10.7125 5.24301 11.3909 5.70878C12.0691 6.17461 13.2542 6.67316 13.2542 6.67316C13.2542 6.67316 10.4264 5.78237 10.2057 4.92424C9.98516 4.06611 11.6604 2.32534 14.4229 2.38251Z" fill="#D8D6E1"/>
<path d="M46.0535 19.7077C46.0535 22.7182 48.4937 25.1585 51.5042 25.1585C54.5145 25.1585 56.9548 22.7182 56.9548 19.7077C56.9548 16.6973 54.5145 14.257 51.5042 14.257C48.4937 14.257 46.0535 16.6973 46.0535 19.7077Z" fill="#27262C"/>
<path d="M55.6089 19.7077C55.6089 21.9817 53.7652 23.8253 51.491 23.8253C49.2171 23.8253 47.3738 21.9817 47.3738 19.7077C47.3738 17.4338 49.2171 15.5903 51.491 15.5903C53.7652 15.5903 55.6089 17.4338 55.6089 19.7077Z" fill="#C3BFBE"/>
<path d="M52.92 16.9471L51.9673 18.03C51.9673 18.03 51.8026 18.2899 51.5774 18.2899C51.3521 18.2899 51.1876 18.108 51.1876 18.108L50.1913 16.9471C50.1913 16.9471 50.0527 16.7825 50.1913 16.6699C50.3299 16.5573 50.816 16.3928 51.4911 16.3928C52.1666 16.3928 53.1627 16.5747 52.92 16.9471Z" fill="#27262C"/>
<path d="M52.9201 22.4683L51.9674 21.3853C51.9674 21.3853 51.8024 21.1255 51.5774 21.1255C51.352 21.1255 51.1874 21.3074 51.1874 21.3074L50.1912 22.4683C50.1912 22.4683 50.0525 22.6329 50.1912 22.7454C50.3298 22.858 50.8161 23.0227 51.4911 23.0227C52.1664 23.0227 53.1625 22.8407 52.9201 22.4683Z" fill="#27262C"/>
<path d="M48.6967 18.3312L49.7796 19.2841C49.7796 19.2841 50.0396 19.4487 50.0396 19.6738C50.0396 19.8993 49.8576 20.0636 49.8576 20.0636L48.6967 21.0601C48.6967 21.0601 48.532 21.1987 48.4198 21.0601C48.3069 20.9214 48.1422 20.4352 48.1422 19.76C48.1422 19.0848 48.3243 18.0885 48.6967 18.3312Z" fill="#27262C"/>
<path d="M54.2174 18.3312L53.1344 19.2841C53.1344 19.2841 52.8745 19.4487 52.8745 19.6738C52.8745 19.8993 53.0566 20.0636 53.0566 20.0636L54.2174 21.06C54.2174 21.06 54.382 21.1988 54.4948 21.06C54.6073 20.9214 54.772 20.4353 54.772 19.76C54.772 19.0848 54.59 18.0885 54.2174 18.3312Z" fill="#27262C"/>
<path d="M6.72613 19.0651C6.72613 22.0755 9.16649 24.5159 12.1769 24.5159C15.1871 24.5159 17.6274 22.0755 17.6274 19.0651C17.6274 16.0547 15.1871 13.6145 12.1769 13.6145C9.16649 13.6144 6.72613 16.0547 6.72613 19.0651Z" fill="#27262C"/>
<path d="M16.2815 19.0653C16.2815 21.3393 14.4379 23.1829 12.1636 23.1829C9.88975 23.1829 8.04645 21.3393 8.04645 19.0653C8.04645 16.7913 9.88981 14.9479 12.1636 14.9479C14.4379 14.9479 16.2815 16.7913 16.2815 19.0653Z" fill="#C3BFBE"/>
<path d="M13.5921 16.3048L12.6391 17.3877C12.6391 17.3877 12.4747 17.6476 12.2495 17.6476C12.0241 17.6476 11.8594 17.4657 11.8594 17.4657L10.8633 16.3048C10.8633 16.3048 10.7247 16.1403 10.8633 16.0277C11.0019 15.915 11.4881 15.7505 12.1631 15.7505C12.8386 15.7505 13.8348 15.9324 13.5921 16.3048Z" fill="#27262C"/>
<path d="M13.5921 21.8259L12.6395 20.743C12.6395 20.743 12.4747 20.4832 12.2497 20.4832C12.0243 20.4832 11.8594 20.665 11.8594 20.665L10.8634 21.8259C10.8634 21.8259 10.7247 21.9905 10.8634 22.1031C11.0021 22.2157 11.4882 22.3803 12.1632 22.3803C12.8387 22.3803 13.8348 22.1983 13.5921 21.8259Z" fill="#27262C"/>
<path d="M9.36848 17.6889L10.4514 18.6417C10.4514 18.6417 10.7114 18.8064 10.7114 19.0315C10.7114 19.257 10.5293 19.4214 10.5293 19.4214L9.36848 20.4178C9.36848 20.4178 9.20384 20.5565 9.09155 20.4178C8.97875 20.2791 8.81399 19.7929 8.81399 19.1178C8.81399 18.4425 8.99607 17.4463 9.36848 17.6889Z" fill="#27262C"/>
<path d="M14.8897 17.6889L13.8069 18.6417C13.8069 18.6417 13.547 18.8064 13.547 19.0315C13.547 19.257 13.7289 19.4213 13.7289 19.4213L14.8897 20.4177C14.8897 20.4177 15.0545 20.5564 15.1672 20.4177C15.2798 20.279 15.4443 19.7929 15.4443 19.1177C15.4444 18.4425 15.2624 17.4462 14.8897 17.6889Z" fill="#27262C"/>
<path d="M43.2121 21.4558C44.3142 19.17 44.9237 17.2435 44.9883 13.6153C45.0556 9.8335 43.5683 7.29466 43.5531 7.26944L43.4567 7.32693C43.4716 7.35183 44.9426 9.86526 44.876 13.6133C44.8118 17.2208 44.2062 19.1356 43.111 21.407L43.2121 21.4558Z" fill="#080705"/>
<path d="M29.0828 20.6801C29.0866 20.6648 29.4842 19.1381 29.6825 18.3071C29.8805 17.4775 29.7054 15.9153 29.7054 15.8099V9.80481C29.7054 9.37106 29.1664 8.49644 29.1007 8.38761L28.1833 2.06828L28.0669 2.08419L28.9744 8.42624L28.979 8.43599C28.9847 8.44543 29.5508 9.38293 29.5508 9.80474L29.5511 15.8201C29.553 15.8364 29.748 17.46 29.5519 18.2809C29.3539 19.1116 28.9778 20.6378 28.9739 20.6532L29.0828 20.6801Z" fill="#080705"/>
<path d="M14.8991 12.9303L14.9877 12.8614C14.7108 12.5051 14.5471 9.15066 14.552 8.40276C14.5561 7.7755 15.2103 6.91955 15.2169 6.91095L15.2251 6.89645L16.959 2.28157L16.8538 2.24211L15.1227 6.84922C15.0549 6.93841 14.4438 7.76055 14.4397 8.40206C14.4368 8.85454 14.5695 12.5064 14.8991 12.9303Z" fill="#080705"/>
<path d="M45.1858 9.70348C45.58 9.70348 45.8207 9.59158 45.8823 9.37983C45.9659 9.09225 45.7034 8.87845 45.692 8.86947C45.6513 8.83848 41.6938 5.84311 39.4028 4.68539C37.0851 3.51427 35.8085 2.86916 32.6058 2.31613C30.6473 1.97792 28.6067 1.93776 27.2397 1.93776C26.4954 1.93776 26.0216 1.99101 26.0167 1.99101H18.87C18.6512 1.99101 13.5165 2.05351 12.2907 2.82977C11.2528 3.48706 10.1989 4.34346 10.3539 4.81866C10.4823 5.21257 12.3541 6.59845 13.7274 6.79582C15.0777 6.98985 24.7713 7.99973 24.8691 8.00986L34.5546 8.89071L44.8124 9.67435C44.8139 9.67486 44.9828 9.70348 45.1858 9.70348ZM27.2397 1.99628C28.602 1.99628 30.6355 2.08072 32.586 2.41751C35.7714 2.96759 37.0425 3.61674 39.3501 4.78273C41.6317 5.9357 45.5807 8.92805 45.6203 8.95815C45.6211 8.95892 45.8316 9.13351 45.7699 9.34544C45.7124 9.54332 45.4205 9.5858 45.1858 9.5858C44.9934 9.5858 44.8288 9.55751 44.8271 9.55725L34.5644 8.77226L24.8805 7.88975C24.7835 7.87961 15.0921 6.8662 13.7441 6.67243C12.3733 6.47538 10.5687 5.08514 10.465 4.76714C10.3579 4.43849 11.1344 3.64221 12.3531 2.87026C13.5515 2.11119 18.8178 1.99101 18.8711 1.99101H26.0196C26.027 1.99101 26.4984 1.99628 27.2397 1.99628Z" fill="#D8D6E1"/>
<path d="M58.0644 19.3796H62.3887C62.4197 19.3796 62.4448 19.3465 62.4448 19.3155C62.4448 19.2845 62.4197 19.2513 62.3887 19.2513H58.1146C58.081 18.9305 57.8806 17.5809 57.058 16.2295C56.2103 14.837 54.5114 13.1655 51.2312 13.1653C48.4514 13.1653 46.8717 14.6883 46.0361 15.9709C45.1325 17.3575 44.8815 18.761 44.8791 18.775C44.8739 18.8056 44.8941 18.8332 44.9247 18.8385C44.9554 18.8437 44.9844 18.8226 44.9897 18.792C44.9922 18.7782 45.2402 17.3911 46.1321 16.0236C46.9527 14.7657 48.5034 13.2661 51.2313 13.2662C54.4593 13.2663 56.1294 14.8969 56.9621 16.2649C57.8656 17.7493 58.0071 19.2823 58.0085 19.2973C58.011 19.3263 58.0353 19.3796 58.0644 19.3796Z" fill="#080705"/>
<path d="M43.1518 9.43754C43.1518 9.43754 42.8377 7.42073 41.5402 7.16574C40.2427 6.91088 40.0014 8.10819 39.9877 8.18551C39.974 8.26295 39.742 9.27816 40.7572 9.43754C41.7724 9.59692 43.1654 9.94739 43.1518 9.43754Z" fill="#3A394B"/>
<path d="M34.7736 10.5317C34.7846 10.1925 34.0185 9.95174 33.132 9.85319C32.2455 9.7547 31.3588 9.8204 31.2824 10.083C31.2057 10.3457 31.9719 10.9805 33.028 10.9585C34.0841 10.9367 34.7627 10.8711 34.7736 10.5317Z" fill="#100607"/>
<path d="M34.4813 10.5534C34.4813 10.5534 34.3865 10.2579 33.1499 10.1046C31.9131 9.95149 31.5957 9.95149 31.5957 10.1046C31.5957 10.2579 32.1429 10.5424 32.4603 10.5534C32.7776 10.5644 34.5214 10.849 34.4813 10.5534Z" fill="#BEC0CC"/>
<path d="M19.7555 8.95385C19.7664 8.61455 19.0003 8.37381 18.1138 8.27532C17.2273 8.17676 16.3408 8.24246 16.2641 8.50515C16.1877 8.76778 16.9537 9.40255 18.0098 9.38067C19.066 9.35879 19.7445 9.29309 19.7555 8.95385Z" fill="#100607"/>
<path d="M19.4632 8.97577C19.4632 8.97577 19.3684 8.6803 18.1318 8.52707C16.895 8.37385 16.5777 8.37385 16.5777 8.52707C16.5777 8.6803 17.1249 8.96486 17.4423 8.97577C17.7596 8.98674 19.5032 9.27131 19.4632 8.97577Z" fill="#BEC0CC"/>
</svg>
