<svg width="61" height="32" viewBox="0 0 61 32" fill="none" xmlns="http://www.w3.org/2000/svg">
<path d="M22.2661 24.7688L16.9286 25.4089L17.1414 26.2967L22.2661 25.0927V24.7688Z" fill="#050102"/>
<path d="M21.9393 22.2938C21.9393 22.2938 22.0216 25.4791 18.7285 25.533C15.4354 25.5869 13.4186 23.9135 13.4186 23.9135L9.3172 23.9141L8.13262 23.6045L5.2273 23.2334C5.2273 23.2334 4.75294 21.8232 5.05192 21.4617C5.35067 21.1002 6.2974 19.9888 6.2974 19.9888C6.2974 19.9888 18.2345 15.0493 21.9393 22.2938Z" fill="#050102"/>
<path d="M25.0254 22.1161C25.0254 22.1161 22.6379 25.5149 22.0205 25.4068C21.403 25.2989 21.7734 21.6423 19.7978 22.1946C17.8219 22.7469 25.0254 22.1161 25.0254 22.1161Z" fill="#3C3C38"/>
<path d="M39.4321 23.4054C39.4321 23.4054 39.4321 24.1867 35.5217 24.1048C31.6112 24.0229 24.0375 24.3717 20.7444 22.0774C17.4514 19.7832 39.2273 22.3351 39.4321 23.4054Z" fill="#3C3C38"/>
<path d="M0.889984 12.9765H36.4653V22.7433H17.8221C17.8221 22.7433 17.4105 22.642 17.2663 22.0658C17.1223 21.4895 16.8342 19.3706 12.0799 19.3706C7.32575 19.3706 7.55196 21.9847 7.26399 22.067C6.97589 22.1494 6.09092 21.9438 5.78211 21.738C5.47342 21.5322 1.43951 20.3591 1.43951 20.3591C1.43951 20.3591 0.883888 19.8035 0.822151 19.1655C0.760292 18.5275 0.822151 17.6219 0.822151 17.6219C0.822151 17.6219 0.472198 16.8605 0.554596 16.5928L0.541996 14.3628C0.541996 14.3628 0.889156 13.6868 0.889984 12.9765Z" fill="#404040"/>
<path d="M0.851509 12.8197L36.4656 12.6623V12.9769H0.89024C0.89024 12.9769 0.855888 12.8746 0.851509 12.8197Z" fill="#9C9C9E"/>
<path d="M40.482 25.0516H39.1237C39.1237 25.0516 37.6212 24.5989 37.5801 22.7053C37.539 20.8119 41.0788 23.6902 40.482 25.0516Z" fill="#020100"/>
<path d="M54.7859 22.7469L53.3418 24.5876C53.3418 24.5876 52.7422 23.8574 52.1382 24.1049C51.5341 24.3523 44.7746 25.0921 44.7746 25.0921C44.7746 25.0921 40.5645 26.1222 40.5129 25.7929C40.4614 25.4637 40.5129 23.4879 40.5129 23.4879C40.5129 23.4879 43.7133 16.9433 46.6358 17.7047C49.5583 18.466 54.8682 20.195 54.7859 22.7469Z" fill="#020100"/>
<path d="M40.2539 24.3522V28.242L40.7866 27.3569V26.0192V24.5991L40.2539 24.3522Z" fill="#020100"/>
<path d="M58.212 19.567L59.1501 19.8036C59.1501 19.8036 60.5017 20.5001 60.3841 20.7981C60.2664 21.0961 60.2037 21.6685 60.2115 21.9586C60.2194 22.2488 59.9517 25.0056 56.8235 24.5328C53.6951 24.0602 58.212 19.567 58.212 19.567Z" fill="#020100"/>
<path d="M58.9819 11.8936L59.2823 12.1882C59.2823 12.1882 59.4124 12.0407 59.5488 12.6811C59.6854 13.3215 60.1975 16.3139 59.7051 17.5686C59.213 18.8232 58.6144 17.9413 58.6144 17.8993C58.6144 17.8573 58.9819 11.8936 58.9819 11.8936Z" fill="#292325"/>
<path d="M36.8089 22.8084V9.90402L37.1313 0.457542C37.1313 0.457542 37.2149 -0.0049324 37.876 3.98078e-05C38.537 0.00501201 46.949 0.292567 48.5543 0.663056C50.1597 1.03349 50.343 1.09529 51.1971 1.86705C52.0512 2.63886 57.3962 9.47179 57.3962 9.47179C57.3962 9.47179 58.7896 11.7357 59.2836 11.8181V12.1885C59.2836 12.1885 58.9389 12.1474 58.9389 12.6207C58.9389 13.0941 59.0957 17.375 59.0957 17.375L59.73 17.4779C59.73 17.4779 59.5428 18.2394 59.2341 18.9802C58.9253 19.7212 59.1509 19.8036 59.1509 19.8036C59.1509 19.8036 58.6769 20.0505 58.6151 20.6474C58.5534 21.2443 58.4915 23.7346 58.1826 24.0227C57.8739 24.3108 57.5395 24.5578 56.14 24.5578C54.7404 24.5578 53.1195 24.8048 53.0577 24.3932C52.996 23.9815 52.8109 18.8362 46.9245 19.5359C41.0383 20.2357 42.9318 24.9488 40.915 24.7636C40.915 24.7636 38.9185 24.6607 36.8089 22.8084Z" fill="#404040"/>
<path d="M0.535423 12.3257H36.4656V12.8584H0.535423V12.3257Z" fill="#404040"/>
<path d="M41.9424 26.2092C41.9424 29.1446 44.3221 31.5241 47.2577 31.5241C50.1928 31.5241 52.5723 29.1446 52.5723 26.2092C52.5723 23.2736 50.1928 20.8941 47.2577 20.8941C44.3221 20.8941 41.9424 23.2736 41.9424 26.2092Z" fill="#27262C"/>
<path d="M51.2581 26.2092C51.2581 28.4267 49.4603 30.2242 47.2426 30.2242C45.0253 30.2242 43.2282 28.4267 43.2282 26.2092C43.2282 23.9919 45.0253 22.1942 47.2426 22.1942C49.4603 22.1942 51.2581 23.9919 51.2581 26.2092Z" fill="#C3BFBE"/>
<path d="M48.6373 23.5176L47.7081 24.5737C47.7081 24.5737 47.5475 24.827 47.3281 24.827C47.1083 24.827 46.9477 24.6495 46.9477 24.6495L45.9765 23.5176C45.9765 23.5176 45.8413 23.3569 45.9765 23.2474C46.1114 23.1375 46.5855 22.9771 47.2437 22.9771C47.9026 22.9771 48.8738 23.1543 48.6373 23.5176Z" fill="#27262C"/>
<path d="M48.6373 28.9013L47.7084 27.8453C47.7084 27.8453 47.5474 27.592 47.328 27.592C47.1085 27.592 46.9476 27.7694 46.9476 27.7694L45.9764 28.9013C45.9764 28.9013 45.8412 29.0619 45.9764 29.1714C46.1114 29.2813 46.5858 29.4419 47.2438 29.4419C47.9025 29.4419 48.8737 29.2646 48.6373 28.9013Z" fill="#27262C"/>
<path d="M44.5179 24.8672L45.5737 25.7963C45.5737 25.7963 45.8271 25.9568 45.8271 26.1762C45.8271 26.3963 45.6498 26.5565 45.6498 26.5565L44.5179 27.5282C44.5179 27.5282 44.3572 27.6632 44.2477 27.5282C44.1378 27.393 43.9772 26.9187 43.9772 26.2604C43.9771 25.6021 44.1546 24.6305 44.5179 24.8672Z" fill="#27262C"/>
<path d="M49.9015 24.8672L48.8457 25.7963C48.8457 25.7963 48.5924 25.9568 48.5924 26.1762C48.5924 26.396 48.7699 26.5564 48.7699 26.5564L49.9015 27.5282C49.9015 27.5282 50.0621 27.6632 50.1722 27.5282C50.2819 27.3928 50.4424 26.9187 50.4424 26.2604C50.4424 25.6021 50.2647 24.6305 49.9015 24.8672Z" fill="#27262C"/>
<path d="M7.79732 25.4065C7.79732 28.1715 10.0389 30.4128 12.8038 30.4128C15.5685 30.4128 17.8098 28.1715 17.8098 25.4065C17.8098 22.6415 15.5685 20.4002 12.8038 20.4002C10.0389 20.4002 7.79732 22.6415 7.79732 25.4065Z" fill="#27262C"/>
<path d="M16.573 25.4065C16.573 27.4953 14.8798 29.1883 12.7909 29.1883C10.7024 29.1883 9.00942 27.4953 9.00942 25.4065C9.00942 23.318 10.7024 21.6247 12.7909 21.6247C14.8798 21.6247 16.573 23.318 16.573 25.4065Z" fill="#C3BFBE"/>
<path d="M14.1049 22.8712L13.2297 23.8659C13.2297 23.8659 13.0785 24.1046 12.8717 24.1046C12.6648 24.1046 12.5135 23.9374 12.5135 23.9374L11.5986 22.8712C11.5986 22.8712 11.4714 22.7198 11.5986 22.6166C11.7257 22.5131 12.1723 22.362 12.7923 22.362C13.4129 22.362 14.3278 22.529 14.1049 22.8712Z" fill="#27262C"/>
<path d="M14.105 27.9419L13.2299 26.9472C13.2299 26.9472 13.0784 26.7088 12.8716 26.7088C12.6649 26.7088 12.5134 26.8758 12.5134 26.8758L11.5985 27.9419C11.5985 27.9419 11.4713 28.0932 11.5985 28.1965C11.7258 28.3 12.1725 28.4512 12.7923 28.4512C13.4128 28.4512 14.3278 28.2842 14.105 27.9419Z" fill="#27262C"/>
<path d="M10.2246 24.1424L11.2193 25.0176C11.2193 25.0176 11.458 25.1687 11.458 25.3754C11.458 25.5826 11.2908 25.7336 11.2908 25.7336L10.2246 26.6488C10.2246 26.6488 10.0732 26.776 9.97018 26.6488C9.86659 26.5216 9.71537 26.0748 9.71537 25.4546C9.71543 24.8346 9.88247 23.9194 10.2246 24.1424Z" fill="#27262C"/>
<path d="M15.2966 24.1424L14.302 25.0176C14.302 25.0176 14.0634 25.1687 14.0634 25.3754C14.0634 25.5825 14.2307 25.7336 14.2307 25.7336L15.2966 26.6488C15.2966 26.6488 15.4478 26.776 15.5515 26.6488C15.6549 26.5213 15.8062 26.0748 15.8062 25.4546C15.8062 24.8346 15.6387 23.9194 15.2966 24.1424Z" fill="#27262C"/>
<path d="M43.0144 12.3257H40.5505V12.8679C40.5505 12.8679 43.0144 13.3911 43.0144 12.3257Z" fill="#090600"/>
<path d="M41.2229 13.8554C41.2229 14.06 41.057 14.2259 40.8524 14.2259C40.6477 14.2259 40.4819 14.06 40.4819 13.8554C40.4819 13.6508 40.6477 13.4849 40.8524 13.4849C41.057 13.4849 41.2229 13.6508 41.2229 13.8554Z" fill="#5B5851"/>
<path d="M38.5374 2.61811V4.19257H37.5803C37.5803 4.19257 37.2408 2.00061 38.5374 2.61811Z" fill="#3E0300"/>
<path opacity="0.5" d="M0.596555 16.4034L36.3762 17.4092L36.3727 17.5327L0.593083 16.5269L0.596555 16.4034Z" fill="white"/>
<path opacity="0.5" d="M0.575682 16.9626L36.3589 18.0365L36.3552 18.16L0.571978 17.086L0.575682 16.9626Z" fill="white"/>
<path d="M4.78841 20.0707C4.78841 20.6023 5.19465 21.0333 5.69584 21.0333C6.19703 21.0333 6.60327 20.6024 6.60327 20.0707C6.60327 19.5391 6.19703 19.1081 5.69584 19.1081C5.19465 19.1081 4.78841 19.5391 4.78841 20.0707Z" fill="#0D090A"/>
<path d="M5.53577 21.1102C6.19962 21.1102 6.73975 20.5701 6.73975 19.9061C6.73975 19.2423 6.19962 18.7021 5.53577 18.7021C4.87192 18.7021 4.33176 19.2423 4.33176 19.9061C4.33176 20.5701 4.87192 21.1102 5.53577 21.1102ZM5.53577 18.8256C6.13161 18.8256 6.61639 19.3103 6.61639 19.9061C6.61639 20.502 6.13167 20.9867 5.53577 20.9867C4.93987 20.9867 4.45512 20.502 4.45512 19.9061C4.45512 19.3104 4.93987 18.8256 5.53577 18.8256Z" fill="#9D9990"/>
<path d="M6.0918 19.9794C6.0918 20.3215 5.83963 20.5987 5.52851 20.5987C5.21739 20.5987 4.96522 20.3215 4.96522 19.9794C4.96522 19.6373 5.21739 19.36 5.52851 19.36C5.83963 19.36 6.0918 19.6373 6.0918 19.9794Z" fill="#345781"/>
<path d="M52.9519 23.6662L57.8183 23.4798L57.8296 23.4349C58.5265 20.6468 58.2439 13.2469 58.1169 12.0976C57.9733 10.8008 51.1659 2.73148 51.0972 2.65074C49.8547 1.19069 48.354 1.26047 48.267 1.26598L38.998 1.04259L39.0027 1.11025L39.5761 9.38642C39.4465 9.51878 38.7833 10.2448 38.7538 11.2786C38.7225 12.3772 39 20.4562 39.0027 20.5377C39.0029 20.546 39.0399 21.4177 40.2295 21.5162C41.3629 21.6101 42.8125 21.8095 42.8271 21.8114L42.844 21.6891C42.8294 21.6872 41.3765 21.4874 40.2398 21.3932C39.1592 21.3037 39.1262 20.5416 39.1262 20.5338C39.1234 20.4519 38.8462 12.3768 38.8774 11.2821C38.9079 10.2122 39.6747 9.46225 39.6826 9.45479L39.7033 9.43479L39.7014 9.40602L39.1307 1.16938L48.2702 1.38964L48.2736 1.38941C48.2884 1.38834 49.7725 1.28457 51.0032 2.73077C52.3609 4.32608 57.8721 11.0095 57.9941 12.1112C58.1202 13.2507 58.4002 20.5521 57.721 23.36L52.9472 23.5429L52.9519 23.6662Z" fill="white"/>
<path d="M54.8745 9.36606V8.29905L50.2528 2.47209C50.2528 2.47209 49.654 1.73022 48.5525 1.73022C47.4512 1.73022 39.4943 1.73022 39.4943 1.73022L40.0485 9.36611L54.8745 9.36606Z" fill="#788D9E"/>
<path d="M53.5958 5.58176L53.3427 8.65388C53.3427 8.65388 53.937 8.11463 54.003 7.92752C54.069 7.74041 54.3332 7.74047 54.3442 7.61936C54.3552 7.49831 54.2007 7.28746 53.9863 7.11775C53.7718 6.94816 53.9699 5.76697 53.5958 5.58176Z" fill="#090600"/>
<path d="M53.9439 9.77012L54.1289 9.76094C54.1134 9.45125 54.3869 8.75412 54.5504 8.33758C54.6115 8.18155 54.66 8.05826 54.6856 7.97818C54.7244 7.85766 54.6906 7.7707 54.6555 7.71896C54.5359 7.54322 54.2308 7.51847 54.1965 7.51628L54.1843 7.70114L54.1904 7.60863L54.1842 7.70109C54.2796 7.7076 54.4504 7.74654 54.5024 7.82332C54.5136 7.83983 54.5265 7.86802 54.5093 7.92147C54.4854 7.99605 54.4354 8.12296 54.3778 8.26994C54.1981 8.72815 53.9263 9.42071 53.9439 9.77012Z" fill="#090600"/>
<path d="M54.0581 9.61148C54.0581 9.61148 54.2122 9.70875 54.3992 9.77013C54.5863 9.83157 54.8944 10.3487 54.0581 10.3487C53.2216 10.3487 53.3428 9.98008 53.3428 9.98008C53.3428 9.98008 53.6951 9.54548 54.0581 9.61148Z" fill="#090600"/>
</svg>
