<svg width="26" height="26" viewBox="0 0 26 26" fill="none" xmlns="http://www.w3.org/2000/svg">
<path fill-rule="evenodd" clip-rule="evenodd" d="M18.1429 1H7.85714C4.07005 1 1 4.07005 1 7.85714V18.1429C1 21.9299 4.07005 25 7.85714 25H18.1429C21.9299 25 25 21.9299 25 18.1429V7.85714C25 4.07005 21.9299 1 18.1429 1Z" stroke="white" stroke-width="2" stroke-linecap="round" stroke-linejoin="round"/>
<path fill-rule="evenodd" clip-rule="evenodd" d="M12.9998 18.1431C10.1594 18.1431 7.85693 15.8407 7.85693 13.0003C7.85693 10.1599 10.1594 7.85742 12.9998 7.85742C15.8402 7.85742 18.1426 10.1599 18.1426 13.0003C18.1426 14.3642 17.6008 15.6723 16.6363 16.6368C15.6718 17.6013 14.3637 18.1431 12.9998 18.1431Z" stroke="white" stroke-width="1.5" stroke-linecap="round" stroke-linejoin="round"/>
<path d="M19.8571 5.28547C19.3838 5.28547 19 5.66923 19 6.14261C19 6.616 19.3838 6.99976 19.8571 6.99976C20.3305 6.99976 20.7143 6.616 20.7143 6.14261C20.7143 5.66923 20.3305 5.28547 19.8571 5.28547Z" fill="white"/>
<path d="M19.8571 5.28547C19.3838 5.28547 19 5.66923 19 6.14261C19 6.616 19.3838 6.99976 19.8571 6.99976C20.3305 6.99976 20.7143 6.616 20.7143 6.14261C20.7143 5.66923 20.3305 5.28547 19.8571 5.28547Z" stroke="white" stroke-width="1.5" stroke-linecap="round"/>
</svg>
