<svg width="101" height="64" viewBox="0 0 101 64" fill="none" xmlns="http://www.w3.org/2000/svg">
<path d="M77.6196 63.6125V36.247H83.4054V47.5379H95.1508V36.247H100.923V63.6125H95.1508V52.3082H83.4054V63.6125H77.6196Z" fill="#0F0F0F"/>
<path d="M67.8083 44.1173C67.7014 43.0394 67.2426 42.202 66.432 41.6052C65.6214 41.0084 64.5212 40.7099 63.1316 40.7099C62.1873 40.7099 61.39 40.8436 60.7397 41.1108C60.0894 41.3691 59.5906 41.7299 59.2432 42.1931C58.9047 42.6563 58.7354 43.1819 58.7354 43.7699C58.7176 44.2598 58.82 44.6874 59.0427 45.0526C59.2743 45.4178 59.5906 45.7341 59.9914 46.0013C60.3923 46.2596 60.8555 46.4868 61.3811 46.6828C61.9067 46.8698 62.4679 47.0302 63.0647 47.1638L65.5234 47.7517C66.7171 48.019 67.8128 48.3753 68.8105 48.8207C69.8082 49.2661 70.6723 49.814 71.4027 50.4642C72.1332 51.1145 72.6989 51.8806 73.0997 52.7625C73.5095 53.6444 73.7188 54.6555 73.7277 55.7957C73.7188 57.4704 73.2912 58.9224 72.445 60.1517C71.6076 61.3721 70.3961 62.3208 68.8105 62.9978C67.2337 63.6659 65.3319 64 63.1048 64C60.8956 64 58.9715 63.6615 57.3324 62.9845C55.7022 62.3075 54.4283 61.3053 53.5108 59.978C52.6022 58.6418 52.1256 56.9894 52.0811 55.0207H57.6798C57.7422 55.9382 58.0049 56.7043 58.4682 57.319C58.9403 57.9247 59.5683 58.3835 60.3522 58.6953C61.1451 58.9981 62.0403 59.1496 63.038 59.1496C64.0179 59.1496 64.8686 59.007 65.5902 58.722C66.3207 58.4369 66.8863 58.0405 67.2872 57.5328C67.6881 57.025 67.8885 56.4415 67.8885 55.7823C67.8885 55.1677 67.7059 54.651 67.3406 54.2323C66.9843 53.8137 66.4587 53.4573 65.7639 53.1634C65.078 52.8694 64.2362 52.6022 63.2385 52.3616L60.2587 51.6134C57.9515 51.0522 56.1298 50.1747 54.7936 48.9811C53.4574 47.7874 52.7937 46.1795 52.8026 44.1573C52.7937 42.5005 53.2347 41.0529 54.1255 39.8147C55.0252 38.5765 56.259 37.6099 57.8268 36.9151C59.3946 36.2203 61.1762 35.8729 63.1716 35.8729C65.2027 35.8729 66.9754 36.2203 68.4898 36.9151C70.0131 37.6099 71.1978 38.5765 72.0441 39.8147C72.8904 41.0529 73.3269 42.4871 73.3536 44.1173H67.8083Z" fill="#0F0F0F"/>
<path d="M42.417 36.247H48.2028V54.0185C48.2028 56.0139 47.7263 57.7599 46.7731 59.2565C45.8288 60.753 44.506 61.92 42.8045 62.7573C41.1031 63.5858 39.121 64 36.8584 64C34.5868 64 32.6003 63.5858 30.8989 62.7573C29.1974 61.92 27.8746 60.753 26.9303 59.2565C25.986 57.7599 25.5139 56.0139 25.5139 54.0185V36.247H31.2997V53.5241C31.2997 54.5664 31.5269 55.4928 31.9812 56.3034C32.4444 57.1141 33.0947 57.751 33.9321 58.2142C34.7694 58.6774 35.7449 58.909 36.8584 58.909C37.9808 58.909 38.9562 58.6774 39.7847 58.2142C40.6221 57.751 41.2679 57.1141 41.7222 56.3034C42.1854 55.4928 42.417 54.5664 42.417 53.5241V36.247Z" fill="#0F0F0F"/>
<path d="M0.820557 63.6125V36.247H11.6172C13.6839 36.247 15.4477 36.6167 16.9086 37.3561C18.3784 38.0865 19.4964 39.1243 20.2625 40.4694C21.0375 41.8056 21.425 43.3779 21.425 45.1862C21.425 47.0035 21.033 48.5668 20.2491 49.8763C19.4652 51.1769 18.3294 52.1746 16.8418 52.8694C15.363 53.5642 13.5725 53.9116 11.4702 53.9116H4.24127V49.2616H10.5348C11.6394 49.2616 12.557 49.1102 13.2874 48.8073C14.0179 48.5045 14.5613 48.0502 14.9176 47.4444C15.2829 46.8387 15.4655 46.0859 15.4655 45.1862C15.4655 44.2776 15.2829 43.5115 14.9176 42.8879C14.5613 42.2644 14.0135 41.7923 13.2741 41.4716C12.5436 41.142 11.6216 40.9772 10.5081 40.9772H6.60637V63.6125H0.820557ZM15.5991 51.1591L22.4004 63.6125H16.0133L9.35897 51.1591H15.5991Z" fill="#0F0F0F"/>
<path d="M86.9196 15.1793V27.3655H82.9243V6.84137H86.7593V10.1819H87.0131C87.4853 9.0951 88.2246 8.22211 89.2313 7.56292C90.2468 6.90373 91.5251 6.57413 93.0662 6.57413C94.4648 6.57413 95.6896 6.86809 96.7408 7.45602C97.7919 8.03505 98.607 8.89913 99.1861 10.0483C99.7651 11.1974 100.055 12.6182 100.055 14.3108V27.3655H96.0593V14.7918C96.0593 13.3041 95.6718 12.1416 94.8968 11.3043C94.1218 10.458 93.0573 10.0349 91.7032 10.0349C90.7768 10.0349 89.9528 10.2353 89.2313 10.6362C88.5186 11.0371 87.9529 11.625 87.5343 12.4C87.1245 13.1661 86.9196 14.0925 86.9196 15.1793Z" fill="#0F0F0F"/>
<path d="M67.4743 27.8198C66.1737 27.8198 64.9978 27.5793 63.9467 27.0982C62.8955 26.6083 62.0626 25.9001 61.4479 24.9737C60.8422 24.0472 60.5393 22.9115 60.5393 21.5663C60.5393 20.4083 60.762 19.4551 61.2074 18.7069C61.6528 17.9586 62.2541 17.3662 63.0113 16.9297C63.7685 16.4932 64.6148 16.1636 65.5501 15.9409C66.4855 15.7182 67.4386 15.549 68.4096 15.4332C69.6389 15.2906 70.6366 15.1748 71.4027 15.0858C72.1688 14.9878 72.7256 14.8319 73.073 14.6181C73.4204 14.4043 73.5941 14.0569 73.5941 13.5758V13.4823C73.5941 12.3154 73.2645 11.4112 72.6053 10.7698C71.955 10.1284 70.9841 9.80774 69.6924 9.80774C68.3473 9.80774 67.2872 10.1062 66.5122 10.703C65.7461 11.2909 65.2161 11.9457 64.9221 12.6672L61.1673 11.8121C61.6127 10.5649 62.263 9.55832 63.1182 8.79223C63.9823 8.01723 64.9755 7.45602 66.098 7.10861C67.2204 6.75229 68.4007 6.57413 69.6389 6.57413C70.4585 6.57413 71.327 6.67212 72.2446 6.86809C73.171 7.05516 74.0351 7.40258 74.8368 7.91033C75.6474 8.41809 76.3111 9.1441 76.8278 10.0883C77.3444 11.0237 77.6028 12.2396 77.6028 13.7362V27.3655H73.701V24.5595H73.5407C73.2823 25.0761 72.8948 25.5839 72.3782 26.0827C71.8615 26.5816 71.1978 26.9958 70.3872 27.3254C69.5766 27.655 68.6056 27.8198 67.4743 27.8198ZM68.3428 24.6129C69.4474 24.6129 70.3917 24.3947 71.1756 23.9582C71.9684 23.5217 72.5697 22.9515 72.9795 22.2478C73.3981 21.5352 73.6075 20.7735 73.6075 19.9629V17.3172C73.465 17.4597 73.1888 17.5934 72.779 17.7181C72.3782 17.8339 71.9194 17.9363 71.4027 18.0254C70.8861 18.1056 70.3828 18.1813 69.8928 18.2526C69.4029 18.3149 68.9931 18.3684 68.6635 18.4129C67.8885 18.5109 67.1803 18.6757 66.5389 18.9073C65.9064 19.1389 65.3987 19.473 65.0156 19.9095C64.6415 20.337 64.4544 20.9072 64.4544 21.6198C64.4544 22.6086 64.8196 23.3569 65.5501 23.8646C66.2806 24.3635 67.2115 24.6129 68.3428 24.6129Z" fill="#0F0F0F"/>
<path d="M38.2681 27.3655V0H42.2633V10.1685H42.5039C42.7355 9.74094 43.0695 9.24654 43.506 8.68533C43.9425 8.12413 44.5483 7.63418 45.3233 7.21551C46.0983 6.78792 47.1227 6.57413 48.3966 6.57413C50.0535 6.57413 51.5322 6.99281 52.8328 7.83016C54.1334 8.66752 55.1534 9.87456 55.8927 11.4513C56.641 13.028 57.0152 14.9254 57.0152 17.1435C57.0152 19.3616 56.6455 21.2635 55.9061 22.8491C55.1667 24.4258 54.1512 25.6418 52.8595 26.4969C51.5679 27.3432 50.0936 27.7663 48.4367 27.7663C47.1895 27.7663 46.1696 27.557 45.3767 27.1383C44.5928 26.7196 43.9782 26.2297 43.5328 25.6685C43.0874 25.1073 42.7444 24.6084 42.5039 24.1719H42.1698V27.3655H38.2681ZM42.1832 17.1034C42.1832 18.5465 42.3925 19.8115 42.8112 20.8982C43.2299 21.985 43.8356 22.8357 44.6285 23.4504C45.4213 24.0561 46.3923 24.359 47.5414 24.359C48.7351 24.359 49.7328 24.0428 50.5345 23.4103C51.3363 22.7689 51.942 21.9004 52.3518 20.8047C52.7705 19.709 52.9798 18.4753 52.9798 17.1034C52.9798 15.7494 52.7749 14.5335 52.3651 13.4556C51.9643 12.3777 51.3585 11.527 50.5479 10.9034C49.7462 10.2799 48.744 9.96809 47.5414 9.96809C46.3833 9.96809 45.4035 10.2665 44.6017 10.8633C43.8089 11.4602 43.2076 12.2931 42.7978 13.3621C42.3881 14.431 42.1832 15.6781 42.1832 17.1034Z" fill="#0F0F0F"/>
<path d="M23.5061 27.3655V6.84137H27.3678V10.1017H27.5816C27.9557 8.99711 28.6149 8.12858 29.5592 7.49611C30.5123 6.85473 31.5902 6.53404 32.7928 6.53404C33.0422 6.53404 33.3362 6.54295 33.6747 6.56077C34.0221 6.57858 34.2938 6.60085 34.4898 6.62758V10.4491C34.3294 10.4046 34.0444 10.3556 33.6346 10.3021C33.2248 10.2398 32.8151 10.2086 32.4053 10.2086C31.461 10.2086 30.6192 10.409 29.8799 10.8099C29.1494 11.2019 28.5704 11.7497 28.1428 12.4534C27.7152 13.1483 27.5014 13.9411 27.5014 14.8319V27.3655H23.5061Z" fill="#0F0F0F"/>
<path d="M14.1293 18.8539V6.84137H18.138V27.3655H14.2095V23.8112H13.9957C13.5236 24.9069 12.7664 25.8199 11.7241 26.5504C10.6908 27.2719 9.40356 27.6327 7.86246 27.6327C6.54406 27.6327 5.37709 27.3432 4.36157 26.7642C3.35496 26.1763 2.56213 25.3077 1.98311 24.1586C1.41299 23.0095 1.12793 21.5886 1.12793 19.8961V6.84137H5.12321V19.4151C5.12321 20.8136 5.51072 21.9271 6.28572 22.7556C7.06073 23.584 8.06734 23.9982 9.30557 23.9982C10.0538 23.9982 10.7977 23.8112 11.537 23.437C12.2853 23.0629 12.9044 22.4972 13.3944 21.7401C13.8932 20.9829 14.1382 20.0208 14.1293 18.8539Z" fill="#0F0F0F"/>
</svg>
