<svg width="152" height="56" viewBox="0 0 152 56" fill="none" xmlns="http://www.w3.org/2000/svg">
<rect width="152" height="56" rx="12" fill="#0F0F0F"/>
<g clip-path="url(#clip0_1822_698)">
<path d="M31.4372 27.1473L22.0659 38.0401C22.4068 39.1918 23.4898 40 24.7003 40C25.2271 40 25.6884 39.8692 26.0835 39.6076L37.6104 33.0702L31.4372 27.1473Z" fill="#EA4335"/>
<path d="M42.4851 25.6144L37.5445 22.8018L32.2754 27.9686L37.6106 33.0702L42.5507 30.3232C43.4071 29.8652 44.0001 28.9497 44.0001 27.9686C43.934 26.9875 43.3415 26.072 42.4851 25.6144Z" fill="#FBBC04"/>
<path d="M31.4145 28.8185L37.5448 22.8018L26.1496 16.3924C25.7545 16.1308 25.2271 16 24.7003 16C23.4492 16 22.3294 16.8503 22.0659 17.9623L31.4145 28.8185Z" fill="#34A853"/>
<path d="M22.0656 17.9623C22 18.1582 22 18.4203 22 18.6814V37.3215C22 37.5826 22 37.779 22.0661 38.0405L32.2763 27.9686L22.0656 17.9623Z" fill="#4285F4"/>
</g>
<path d="M61.8523 16.5C61.7741 16.2609 61.6712 16.0466 61.5433 15.8572C61.4179 15.6655 61.2675 15.5021 61.0923 15.3672C60.9195 15.2322 60.723 15.1293 60.5028 15.0582C60.2827 14.9872 60.0412 14.9517 59.7784 14.9517C59.3475 14.9517 58.9557 15.063 58.603 15.2855C58.2502 15.508 57.9697 15.8359 57.7614 16.2692C57.553 16.7024 57.4489 17.2339 57.4489 17.8636C57.4489 18.4934 57.5542 19.0249 57.7649 19.4581C57.9756 19.8913 58.2609 20.2192 58.6207 20.4418C58.9806 20.6643 59.3854 20.7756 59.8352 20.7756C60.2519 20.7756 60.6188 20.6868 60.9361 20.5092C61.2557 20.3293 61.5043 20.076 61.6818 19.7493C61.8617 19.4202 61.9517 19.0331 61.9517 18.5881L62.2216 18.6449H60.0341V17.8636H62.804V18.6449C62.804 19.2438 62.6761 19.7647 62.4205 20.2074C62.1671 20.6501 61.8168 20.9934 61.3693 21.2372C60.9242 21.4787 60.4129 21.5994 59.8352 21.5994C59.1913 21.5994 58.6255 21.4479 58.1378 21.1449C57.6525 20.8419 57.2737 20.411 57.0014 19.8523C56.7315 19.2936 56.5966 18.6307 56.5966 17.8636C56.5966 17.2884 56.6735 16.7711 56.8274 16.3118C56.9837 15.8501 57.2038 15.4571 57.4879 15.1328C57.772 14.8085 58.1082 14.5599 58.4964 14.3871C58.8847 14.2143 59.312 14.1278 59.7784 14.1278C60.1619 14.1278 60.5194 14.1858 60.8509 14.3018C61.1847 14.4155 61.4818 14.5777 61.7422 14.7884C62.005 14.9967 62.224 15.2464 62.3991 15.5376C62.5743 15.8265 62.6951 16.1473 62.7614 16.5H61.8523ZM66.4856 21.6136C65.96 21.6136 65.5067 21.4976 65.1255 21.2656C64.7467 21.0312 64.4544 20.7045 64.2484 20.2855C64.0448 19.8641 63.943 19.3741 63.943 18.8153C63.943 18.2566 64.0448 17.7642 64.2484 17.3381C64.4544 16.9096 64.7408 16.5758 65.1078 16.3366C65.4771 16.0952 65.908 15.9744 66.4004 15.9744C66.6845 15.9744 66.965 16.0218 67.242 16.1165C67.519 16.2112 67.7711 16.3651 67.9984 16.5781C68.2257 16.7888 68.4068 17.0682 68.5417 17.4162C68.6767 17.7642 68.7441 18.1927 68.7441 18.7017V19.0568H64.5396V18.3324H67.8919C67.8919 18.0246 67.8303 17.75 67.7072 17.5085C67.5865 17.267 67.4136 17.0765 67.1887 16.9368C66.9662 16.7971 66.7034 16.7273 66.4004 16.7273C66.0666 16.7273 65.7778 16.8101 65.5339 16.9759C65.2924 17.1392 65.1066 17.3523 64.9764 17.6151C64.8462 17.8778 64.7811 18.1596 64.7811 18.4602V18.9432C64.7811 19.3551 64.8521 19.7043 64.9941 19.9908C65.1386 20.2749 65.3386 20.4915 65.5943 20.6406C65.85 20.7874 66.1471 20.8608 66.4856 20.8608C66.7058 20.8608 66.9047 20.83 67.0822 20.7685C67.2621 20.7045 67.4172 20.6098 67.5474 20.4844C67.6776 20.3565 67.7782 20.1979 67.8493 20.0085L68.6589 20.2358C68.5737 20.5104 68.4305 20.7519 68.2292 20.9602C68.028 21.1662 67.7794 21.3272 67.4835 21.4432C67.1876 21.5568 66.8549 21.6136 66.4856 21.6136ZM72.3912 16.0455V16.7557H69.5645V16.0455H72.3912ZM70.3883 14.7386H71.2264V19.9375C71.2264 20.1742 71.2607 20.3518 71.3294 20.4702C71.4004 20.5862 71.4904 20.6643 71.5993 20.7045C71.7105 20.7424 71.8277 20.7614 71.9508 20.7614C72.0431 20.7614 72.1189 20.7566 72.1781 20.7472C72.2373 20.7353 72.2846 20.7259 72.3201 20.7188L72.4906 21.4716C72.4338 21.4929 72.3545 21.5142 72.2527 21.5355C72.1509 21.5592 72.0218 21.571 71.8656 21.571C71.6288 21.571 71.3968 21.5201 71.1696 21.4183C70.9447 21.3165 70.7576 21.1615 70.6085 20.9531C70.4617 20.7448 70.3883 20.482 70.3883 20.1648V14.7386ZM76.4643 21.5V16.0455H77.3024V21.5H76.4643ZM76.8904 15.1364C76.7271 15.1364 76.5862 15.0807 76.4679 14.9695C76.3519 14.8582 76.2939 14.7244 76.2939 14.5682C76.2939 14.4119 76.3519 14.2782 76.4679 14.1669C76.5862 14.0556 76.7271 14 76.8904 14C77.0538 14 77.1935 14.0556 77.3095 14.1669C77.4279 14.2782 77.487 14.4119 77.487 14.5682C77.487 14.7244 77.4279 14.8582 77.3095 14.9695C77.1935 15.0807 77.0538 15.1364 76.8904 15.1364ZM81.2095 16.0455V16.7557H78.3828V16.0455H81.2095ZM79.2067 14.7386H80.0447V19.9375C80.0447 20.1742 80.0791 20.3518 80.1477 20.4702C80.2188 20.5862 80.3087 20.6643 80.4176 20.7045C80.5289 20.7424 80.6461 20.7614 80.7692 20.7614C80.8615 20.7614 80.9373 20.7566 80.9964 20.7472C81.0556 20.7353 81.103 20.7259 81.1385 20.7188L81.3089 21.4716C81.2521 21.4929 81.1728 21.5142 81.071 21.5355C80.9692 21.5592 80.8402 21.571 80.6839 21.571C80.4472 21.571 80.2152 21.5201 79.9879 21.4183C79.763 21.3165 79.576 21.1615 79.4268 20.9531C79.2801 20.7448 79.2067 20.482 79.2067 20.1648V14.7386ZM87.4986 21.6136C87.0062 21.6136 86.5741 21.4964 86.2024 21.2621C85.8331 21.0277 85.5443 20.6998 85.3359 20.2784C85.13 19.857 85.027 19.3646 85.027 18.8011C85.027 18.233 85.13 17.737 85.3359 17.3132C85.5443 16.8894 85.8331 16.5604 86.2024 16.326C86.5741 16.0916 87.0062 15.9744 87.4986 15.9744C87.991 15.9744 88.4219 16.0916 88.7912 16.326C89.1629 16.5604 89.4517 16.8894 89.6577 17.3132C89.866 17.737 89.9702 18.233 89.9702 18.8011C89.9702 19.3646 89.866 19.857 89.6577 20.2784C89.4517 20.6998 89.1629 21.0277 88.7912 21.2621C88.4219 21.4964 87.991 21.6136 87.4986 21.6136ZM87.4986 20.8608C87.8726 20.8608 88.1804 20.7649 88.4219 20.5732C88.6634 20.3814 88.8421 20.1293 88.9581 19.8168C89.0741 19.5043 89.1321 19.1657 89.1321 18.8011C89.1321 18.4366 89.0741 18.0968 88.9581 17.782C88.8421 17.4671 88.6634 17.2126 88.4219 17.0185C88.1804 16.8243 87.8726 16.7273 87.4986 16.7273C87.1245 16.7273 86.8168 16.8243 86.5753 17.0185C86.3338 17.2126 86.1551 17.4671 86.0391 17.782C85.9231 18.0968 85.8651 18.4366 85.8651 18.8011C85.8651 19.1657 85.9231 19.5043 86.0391 19.8168C86.1551 20.1293 86.3338 20.3814 86.5753 20.5732C86.8168 20.7649 87.1245 20.8608 87.4986 20.8608ZM92.0875 18.2188V21.5H91.2495V16.0455H92.0591V16.8977H92.1301C92.258 16.6207 92.4521 16.3982 92.7125 16.2301C92.973 16.0597 93.3091 15.9744 93.7211 15.9744C94.0904 15.9744 94.4135 16.0502 94.6905 16.2017C94.9675 16.3509 95.1829 16.5781 95.3368 16.8835C95.4907 17.1866 95.5676 17.5701 95.5676 18.0341V21.5H94.7296V18.0909C94.7296 17.6624 94.6183 17.3286 94.3958 17.0895C94.1732 16.848 93.8678 16.7273 93.4796 16.7273C93.2121 16.7273 92.973 16.7853 92.7623 16.9013C92.5539 17.0173 92.3894 17.1866 92.2686 17.4091C92.1479 17.6316 92.0875 17.9015 92.0875 18.2188Z" fill="white"/>
<path d="M57.2784 39.5V27.8636H61.4261C62.3314 27.8636 63.0814 28.0284 63.6761 28.358C64.2708 28.6875 64.7159 29.1383 65.0114 29.7102C65.3068 30.2784 65.4545 30.9186 65.4545 31.6307C65.4545 32.3466 65.3049 32.9905 65.0057 33.5625C64.7102 34.1307 64.2633 34.5814 63.6648 34.9148C63.0701 35.2443 62.322 35.4091 61.4205 35.4091H58.5682V33.9205H61.2614C61.8333 33.9205 62.2973 33.822 62.6534 33.625C63.0095 33.4242 63.2708 33.1515 63.4375 32.8068C63.6042 32.4621 63.6875 32.0701 63.6875 31.6307C63.6875 31.1913 63.6042 30.8011 63.4375 30.4602C63.2708 30.1193 63.0076 29.8523 62.6477 29.6591C62.2917 29.4659 61.822 29.3693 61.2386 29.3693H59.0341V39.5H57.2784ZM69.0753 27.8636V39.5H67.3764V27.8636H69.0753ZM73.9006 39.6932C73.3475 39.6932 72.8475 39.5909 72.4006 39.3864C71.9536 39.178 71.5994 38.8769 71.3381 38.483C71.0805 38.089 70.9517 37.6061 70.9517 37.0341C70.9517 36.5417 71.0464 36.1364 71.2358 35.8182C71.4252 35.5 71.6809 35.2481 72.0028 35.0625C72.3248 34.8769 72.6847 34.7367 73.0824 34.642C73.4801 34.5473 73.8854 34.4754 74.2983 34.4261C74.821 34.3655 75.2453 34.3163 75.571 34.2784C75.8968 34.2367 76.1335 34.1705 76.2812 34.0795C76.429 33.9886 76.5028 33.8409 76.5028 33.6364V33.5966C76.5028 33.1004 76.3627 32.7159 76.0824 32.4432C75.8059 32.1705 75.393 32.0341 74.8438 32.0341C74.2718 32.0341 73.821 32.161 73.4915 32.4148C73.1657 32.6648 72.9403 32.9432 72.8153 33.25L71.2188 32.8864C71.4081 32.3561 71.6847 31.928 72.0483 31.6023C72.4157 31.2727 72.8381 31.0341 73.3153 30.8864C73.7926 30.7348 74.2945 30.6591 74.821 30.6591C75.1695 30.6591 75.5388 30.7008 75.929 30.7841C76.3229 30.8636 76.6903 31.0114 77.0312 31.2273C77.3759 31.4432 77.6581 31.7519 77.8778 32.1534C78.0975 32.5511 78.2074 33.0682 78.2074 33.7045V39.5H76.5483V38.3068H76.4801C76.3703 38.5265 76.2055 38.7424 75.9858 38.9545C75.7661 39.1667 75.4839 39.3428 75.1392 39.483C74.7945 39.6231 74.3816 39.6932 73.9006 39.6932ZM74.2699 38.3295C74.7396 38.3295 75.1411 38.2367 75.4744 38.0511C75.8116 37.8655 76.0672 37.6231 76.2415 37.3239C76.4195 37.0208 76.5085 36.697 76.5085 36.3523V35.2273C76.4479 35.2879 76.3305 35.3447 76.1562 35.3977C75.9858 35.447 75.7907 35.4905 75.571 35.5284C75.3513 35.5625 75.1373 35.5947 74.929 35.625C74.7206 35.6515 74.5464 35.6742 74.4062 35.6932C74.0767 35.7348 73.7756 35.8049 73.5028 35.9034C73.2339 36.0019 73.018 36.1439 72.8551 36.3295C72.696 36.5114 72.6165 36.7538 72.6165 37.0568C72.6165 37.4773 72.7718 37.7955 73.0824 38.0114C73.393 38.2235 73.7888 38.3295 74.2699 38.3295ZM81.2315 42.7727C80.9777 42.7727 80.7467 42.7519 80.5384 42.7102C80.33 42.6723 80.1747 42.6307 80.0724 42.5852L80.4815 41.1932C80.7921 41.2765 81.0687 41.3125 81.3111 41.3011C81.5535 41.2898 81.7675 41.1989 81.9531 41.0284C82.1425 40.858 82.3092 40.5795 82.4531 40.1932L82.6634 39.6136L79.4702 30.7727H81.2884L83.4986 37.5455H83.5895L85.7997 30.7727H87.6236L84.027 40.6648C83.8603 41.1193 83.6482 41.5038 83.3906 41.8182C83.133 42.1364 82.8262 42.375 82.4702 42.5341C82.1141 42.6932 81.7012 42.7727 81.2315 42.7727ZM95.7599 32.9034L94.2202 33.1761C94.1558 32.9792 94.0535 32.7917 93.9134 32.6136C93.777 32.4356 93.5914 32.2898 93.3565 32.1761C93.1217 32.0625 92.8281 32.0057 92.4759 32.0057C91.9948 32.0057 91.5933 32.1136 91.2713 32.3295C90.9493 32.5417 90.7884 32.8163 90.7884 33.1534C90.7884 33.4451 90.8963 33.6799 91.1122 33.858C91.3281 34.036 91.6766 34.1818 92.1577 34.2955L93.544 34.6136C94.3471 34.7992 94.9455 35.0852 95.3395 35.4716C95.7334 35.858 95.9304 36.3598 95.9304 36.9773C95.9304 37.5 95.7789 37.9659 95.4759 38.375C95.1766 38.7803 94.758 39.0985 94.2202 39.3295C93.6861 39.5606 93.0668 39.6761 92.3622 39.6761C91.3849 39.6761 90.5876 39.4678 89.9702 39.0511C89.3527 38.6307 88.974 38.0341 88.8338 37.2614L90.4759 37.0114C90.5781 37.4394 90.7884 37.7633 91.1065 37.983C91.4247 38.1989 91.8395 38.3068 92.3509 38.3068C92.9077 38.3068 93.3527 38.1913 93.6861 37.9602C94.0194 37.7254 94.1861 37.4394 94.1861 37.1023C94.1861 36.8295 94.0838 36.6004 93.8793 36.4148C93.6785 36.2292 93.3698 36.089 92.9531 35.9943L91.4759 35.6705C90.6615 35.4848 90.0592 35.1894 89.669 34.7841C89.2827 34.3788 89.0895 33.8655 89.0895 33.2443C89.0895 32.7292 89.2334 32.2784 89.5213 31.892C89.8092 31.5057 90.2069 31.2045 90.7145 30.9886C91.2221 30.7689 91.8035 30.6591 92.4588 30.6591C93.402 30.6591 94.1444 30.8636 94.6861 31.2727C95.2277 31.678 95.5857 32.2216 95.7599 32.9034ZM101.872 30.7727V32.1364H97.1051V30.7727H101.872ZM98.3835 28.6818H100.082V36.9375C100.082 37.267 100.132 37.5152 100.23 37.6818C100.329 37.8447 100.455 37.9564 100.611 38.017C100.77 38.0739 100.942 38.1023 101.128 38.1023C101.264 38.1023 101.384 38.0928 101.486 38.0739C101.588 38.0549 101.668 38.0398 101.724 38.0284L102.031 39.4318C101.933 39.4697 101.793 39.5076 101.611 39.5455C101.429 39.5871 101.202 39.6098 100.929 39.6136C100.482 39.6212 100.065 39.5417 99.679 39.375C99.2926 39.2083 98.9801 38.9508 98.7415 38.6023C98.5028 38.2538 98.3835 37.8163 98.3835 37.2898V28.6818ZM107.334 39.6761C106.516 39.6761 105.802 39.4886 105.192 39.1136C104.582 38.7386 104.108 38.214 103.771 37.5398C103.434 36.8655 103.266 36.0777 103.266 35.1761C103.266 34.2708 103.434 33.4792 103.771 32.8011C104.108 32.1231 104.582 31.5966 105.192 31.2216C105.802 30.8466 106.516 30.6591 107.334 30.6591C108.152 30.6591 108.866 30.8466 109.476 31.2216C110.086 31.5966 110.559 32.1231 110.896 32.8011C111.233 33.4792 111.402 34.2708 111.402 35.1761C111.402 36.0777 111.233 36.8655 110.896 37.5398C110.559 38.214 110.086 38.7386 109.476 39.1136C108.866 39.4886 108.152 39.6761 107.334 39.6761ZM107.339 38.25C107.87 38.25 108.309 38.1098 108.658 37.8295C109.006 37.5492 109.264 37.1761 109.43 36.7102C109.601 36.2443 109.686 35.7311 109.686 35.1705C109.686 34.6136 109.601 34.1023 109.43 33.6364C109.264 33.1667 109.006 32.7898 108.658 32.5057C108.309 32.2216 107.87 32.0795 107.339 32.0795C106.805 32.0795 106.362 32.2216 106.01 32.5057C105.661 32.7898 105.402 33.1667 105.232 33.6364C105.065 34.1023 104.982 34.6136 104.982 35.1705C104.982 35.7311 105.065 36.2443 105.232 36.7102C105.402 37.1761 105.661 37.5492 106.01 37.8295C106.362 38.1098 106.805 38.25 107.339 38.25ZM113.298 39.5V30.7727H114.94V32.1591H115.031C115.19 31.6894 115.471 31.3201 115.872 31.0511C116.277 30.7784 116.736 30.642 117.247 30.642C117.353 30.642 117.478 30.6458 117.622 30.6534C117.77 30.661 117.885 30.6705 117.969 30.6818V32.3068C117.901 32.2879 117.779 32.267 117.605 32.2443C117.431 32.2178 117.257 32.2045 117.082 32.2045C116.681 32.2045 116.323 32.2898 116.009 32.4602C115.698 32.6269 115.452 32.8598 115.27 33.1591C115.088 33.4545 114.997 33.7917 114.997 34.1705V39.5H113.298ZM122.888 39.6761C122.028 39.6761 121.287 39.4924 120.666 39.125C120.049 38.7538 119.571 38.233 119.234 37.5625C118.901 36.8883 118.734 36.0985 118.734 35.1932C118.734 34.2992 118.901 33.5114 119.234 32.8295C119.571 32.1477 120.041 31.6155 120.643 31.233C121.25 30.8504 121.958 30.6591 122.768 30.6591C123.261 30.6591 123.738 30.7405 124.2 30.9034C124.662 31.0663 125.077 31.322 125.445 31.6705C125.812 32.0189 126.102 32.4716 126.314 33.0284C126.526 33.5814 126.632 34.2538 126.632 35.0455V35.6477H119.695V34.375H124.967C124.967 33.928 124.876 33.5322 124.695 33.1875C124.513 32.839 124.257 32.5644 123.928 32.3636C123.602 32.1629 123.219 32.0625 122.78 32.0625C122.303 32.0625 121.886 32.1799 121.53 32.4148C121.178 32.6458 120.905 32.9489 120.712 33.3239C120.522 33.6951 120.428 34.0985 120.428 34.5341V35.5284C120.428 36.1117 120.53 36.608 120.734 37.017C120.943 37.4261 121.232 37.7386 121.604 37.9545C121.975 38.1667 122.409 38.2727 122.905 38.2727C123.227 38.2727 123.52 38.2273 123.786 38.1364C124.051 38.0417 124.28 37.9015 124.473 37.7159C124.666 37.5303 124.814 37.3011 124.916 37.0284L126.524 37.3182C126.395 37.7917 126.164 38.2064 125.831 38.5625C125.501 38.9148 125.087 39.1894 124.587 39.3864C124.09 39.5795 123.524 39.6761 122.888 39.6761Z" fill="white"/>
<defs>
<clipPath id="clip0_1822_698">
<rect width="22" height="24" fill="white" transform="translate(22 16)"/>
</clipPath>
</defs>
</svg>
