<svg width="32" height="32" viewBox="0 0 32 32" fill="none" xmlns="http://www.w3.org/2000/svg">
<path d="M16.1866 10.16H9.15993C6.67993 10.16 6.11994 11.4001 5.81327 12.9334L4.67993 18.3334H20.6799L19.5466 12.9334C19.2133 11.4001 18.6666 10.16 16.1866 10.16Z" stroke="#FDFDFD" stroke-width="2" stroke-linecap="round" stroke-linejoin="round"/>
<path d="M22.6533 27.1467C22.76 28.3201 21.8267 29.3334 20.6267 29.3334H18.7467C17.6667 29.3334 17.52 28.8667 17.32 28.3067L17.12 27.7068C16.84 26.8935 16.6533 26.3334 15.2133 26.3334H10.0933C8.65334 26.3334 8.44 26.9601 8.18667 27.7068L7.98667 28.3067C7.80001 28.8801 7.65333 29.3334 6.56 29.3334H4.67999C3.47999 29.3334 2.53334 28.3201 2.65334 27.1467L3.21334 21.0534C3.36001 19.5467 3.64 18.3201 6.26666 18.3201H19.0267C21.6533 18.3201 21.9333 19.5467 22.08 21.0534L22.6533 27.1467Z" stroke="#FDFDFD" stroke-width="2" stroke-linecap="round" stroke-linejoin="round"/>
<path d="M4.66675 15.3334H3.66675" stroke="#FDFDFD" stroke-width="2" stroke-linecap="round" stroke-linejoin="round"/>
<path d="M21.6667 15.3334H20.6667" stroke="#FDFDFD" stroke-width="2" stroke-linecap="round" stroke-linejoin="round"/>
<path d="M6.66675 22.3334H9.66675" stroke="#FDFDFD" stroke-width="1.5" stroke-linecap="round" stroke-linejoin="round"/>
<path d="M15.6667 22.3334H18.6667" stroke="#FDFDFD" stroke-width="1.5" stroke-linecap="round" stroke-linejoin="round"/>
<path d="M24.9467 11.6533C25.32 10.7866 25.1867 9.61332 24.4933 8.58665C23.8133 7.55999 22.7733 6.98665 21.8267 6.99998" stroke="#FDFDFD" stroke-width="1.5" stroke-linecap="round" stroke-linejoin="round"/>
<path d="M29.0934 12.9733C29.6534 10.9599 29.2534 8.49332 27.8268 6.35999C26.4001 4.22665 24.2668 2.91996 22.1868 2.66663" stroke="#FDFDFD" stroke-width="1.5" stroke-linecap="round" stroke-linejoin="round"/>
</svg>
