<svg width="32" height="32" viewBox="0 0 32 32" fill="none" xmlns="http://www.w3.org/2000/svg">
<path d="M20.0001 2.66663V16C20.0001 17.4666 18.8001 18.6666 17.3334 18.6666H2.66675V10.16C3.64008 11.32 5.13345 12.04 6.78678 12C8.13345 11.9733 9.34675 11.4533 10.2534 10.5866C10.6668 10.24 11.0134 9.79995 11.2801 9.31995C11.7601 8.50661 12.0267 7.54659 12.0001 6.54659C11.9601 4.98659 11.2668 3.61329 10.1868 2.66663H20.0001Z" stroke="#0F0F0F" stroke-width="2" stroke-linecap="round" stroke-linejoin="round"/>
<path d="M29.3334 18.6666V22.6666C29.3334 24.88 27.5467 26.6666 25.3334 26.6666H24.0001C24.0001 25.2 22.8001 24 21.3334 24C19.8667 24 18.6667 25.2 18.6667 26.6666H13.3334C13.3334 25.2 12.1334 24 10.6667 24C9.20008 24 8.00008 25.2 8.00008 26.6666H6.66675C4.45341 26.6666 2.66675 24.88 2.66675 22.6666V18.6666H17.3334C18.8001 18.6666 20.0001 17.4666 20.0001 16V6.66663H22.4535C23.4135 6.66663 24.2934 7.18664 24.7734 8.01331L27.0534 12H25.3334C24.6001 12 24.0001 12.6 24.0001 13.3333V17.3333C24.0001 18.0666 24.6001 18.6666 25.3334 18.6666H29.3334Z" stroke="#0F0F0F" stroke-width="2" stroke-linecap="round" stroke-linejoin="round"/>
<path d="M10.6667 29.3333C12.1394 29.3333 13.3333 28.1394 13.3333 26.6667C13.3333 25.1939 12.1394 24 10.6667 24C9.19391 24 8 25.1939 8 26.6667C8 28.1394 9.19391 29.3333 10.6667 29.3333Z" stroke="#0F0F0F" stroke-width="2" stroke-linecap="round" stroke-linejoin="round"/>
<path d="M21.3334 29.3333C22.8062 29.3333 24.0001 28.1394 24.0001 26.6667C24.0001 25.1939 22.8062 24 21.3334 24C19.8607 24 18.6667 25.1939 18.6667 26.6667C18.6667 28.1394 19.8607 29.3333 21.3334 29.3333Z" stroke="#0F0F0F" stroke-width="2" stroke-linecap="round" stroke-linejoin="round"/>
<path d="M29.3333 16V18.6667H25.3333C24.6 18.6667 24 18.0667 24 17.3333V13.3333C24 12.6 24.6 12 25.3333 12H27.0533L29.3333 16Z" stroke="#0F0F0F" stroke-width="1.5" stroke-linecap="round" stroke-linejoin="round"/>
<path d="M12 6.5467C12.0267 7.5467 11.76 8.50672 11.28 9.32005C11.0133 9.80005 10.6667 10.2401 10.2533 10.5867C9.34665 11.4534 8.13335 11.9734 6.78669 12.0001C5.13335 12.0401 3.63998 11.3201 2.66665 10.1601C2.47998 9.96006 2.31999 9.73341 2.17332 9.50674C1.65332 8.72007 1.35998 7.78677 1.33332 6.78677C1.29332 5.10677 2.03998 3.57339 3.23998 2.57339C4.14664 1.82672 5.29328 1.36007 6.54662 1.3334C7.94662 1.30673 9.22667 1.8134 10.1867 2.66673C11.2667 3.6134 11.96 4.9867 12 6.5467Z" stroke="#0F0F0F" stroke-width="1.5" stroke-miterlimit="10" stroke-linecap="round" stroke-linejoin="round"/>
<path d="M4.58667 6.70675L5.93335 7.98669L8.71997 5.29333" stroke="#0F0F0F" stroke-width="1.5" stroke-linecap="round" stroke-linejoin="round"/>
</svg>
